<svg xmlns="http://www.w3.org/2000/svg" xmlns:xlink="http://www.w3.org/1999/xlink" viewBox="0 0 180.68 156.3"><defs><style>.cls-1{fill:url(#linear-gradient);}.cls-2{fill:url(#linear-gradient-2);}</style><linearGradient id="linear-gradient" x1="160.68" y1="-7.84" x2="86.32" y2="161.43" gradientUnits="userSpaceOnUse"><stop offset="0" stop-color="#14e8d5"/><stop offset="1" stop-color="#964bff"/></linearGradient><linearGradient id="linear-gradient-2" y1="78.15" x2="121.06" y2="78.15" gradientUnits="userSpaceOnUse"><stop offset="0" stop-color="#fff25f"/><stop offset="1" stop-color="#ff3c91"/></linearGradient></defs><title>2Asset 1</title><g id="Layer_2" data-name="Layer 2"><g id="Layer_1-2" data-name="Layer 1"><path class="cls-1" d="M70.47,156.3h48.36a5.47,5.47,0,0,0,4.88-2.62L180.23,6.12c1.53-2.89-1-6.12-4.88-6.12H127a5.49,5.49,0,0,0-4.88,2.62L65.59,150.18C64.06,153.07,66.63,156.3,70.47,156.3Z"/><path class="cls-2" d="M121.06,156.3H64.55a5.44,5.44,0,0,1-4.86-2.61L.45,6.09C-1.08,3.22,1.49,0,5.3,0H53.72a5.46,5.46,0,0,1,4.86,2.61Z"/></g></g></svg>