<svg xmlns="http://www.w3.org/2000/svg" xmlns:xlink="http://www.w3.org/1999/xlink" viewBox="0 0 275.27 233.1"><defs><style>.cls-1{fill:url(#linear-gradient);}.cls-2{fill:url(#linear-gradient-2);}.cls-3{fill:#964bff;}</style><linearGradient id="linear-gradient" x1="207.75" y1="-7.84" x2="133.39" y2="161.43" gradientUnits="userSpaceOnUse"><stop offset="0" stop-color="#14e8d5"/><stop offset="1" stop-color="#964bff"/></linearGradient><linearGradient id="linear-gradient-2" x1="47.07" y1="78.15" x2="168.13" y2="78.15" gradientUnits="userSpaceOnUse"><stop offset="0" stop-color="#fff25f"/><stop offset="1" stop-color="#ff3c91"/></linearGradient></defs><title>2Asset 2</title><g id="Layer_2" data-name="Layer 2"><g id="Layer_1-2" data-name="Layer 1"><path class="cls-1" d="M117.53,156.3H165.9a5.47,5.47,0,0,0,4.88-2.62L227.29,6.12c1.54-2.89-1-6.12-4.88-6.12H174.05a5.47,5.47,0,0,0-4.88,2.62L112.66,150.18C111.12,153.07,113.7,156.3,117.53,156.3Z"/><path class="cls-2" d="M168.13,156.3H111.62a5.43,5.43,0,0,1-4.86-2.61L47.51,6.09C46,3.22,48.55,0,52.37,0h48.42a5.45,5.45,0,0,1,4.85,2.61Z"/><path class="cls-3" d="M9.51,221.52.34,199.73c-.93-2.24.1-3.77,2.49-3.77H4.1a3.67,3.67,0,0,1,3.75,2.63l6.51,17,6.5-17A3.67,3.67,0,0,1,24.61,196h1.27c2.46,0,3.48,1.55,2.53,3.78l-9.22,21.79a3.74,3.74,0,0,1-3.76,2.52h-2.1A3.79,3.79,0,0,1,9.51,221.52Z"/><path class="cls-3" d="M30.21,210c0-9.43,5.27-14.49,12.27-14.49,3.93,0,7.68,1.94,9.13,5.38V198.8c0-1.81,1.2-2.86,3.27-2.86h.92a3,3,0,0,1,3.27,3.27V220.7A3,3,0,0,1,55.8,224h-.92c-2.06,0-3.27-1-3.27-2.8v-1.92c-1.42,3.34-5.2,5.29-9.1,5.29C35.53,224.54,30.21,219.42,30.21,210Zm21.63,0c0-5.17-2.88-8.4-7.12-8.4s-7.08,3.21-7.08,8.4,2.87,8.45,7.14,8.45S51.84,215.19,51.84,210Z"/><path class="cls-3" d="M64.93,220.75V190.08a3,3,0,0,1,3.27-3.27h1a3,3,0,0,1,3.27,3.27v30.67A3,3,0,0,1,69.17,224h-1A3,3,0,0,1,64.93,220.75Z"/><path class="cls-3" d="M82.86,224a3,3,0,0,1-3.27-3.27V201.56H78.42a2.68,2.68,0,0,1-3-2.84,2.64,2.64,0,0,1,3-2.8h1.17v-1c0-6.38,3.6-9.61,10.67-9.61.72,0,1.53,0,2.26.11,2.23.21,3.11,1.27,2.86,3s-1,2.52-2.63,2.47c-.45,0-.75,0-1.15,0-3,0-4.47,1.32-4.47,4.16v.91h4.18c2.11,0,3.27,1,3.27,2.8s-1.16,2.84-3.27,2.84H87.13v19.19A3,3,0,0,1,83.86,224Z"/><path class="cls-3" d="M95.6,210c0-10.11,7.19-14.49,14.52-14.49s14.51,4.38,14.51,14.49-7.15,14.56-14.51,14.56S95.6,220.19,95.6,210Zm21.59,0c0-5.25-2.91-8.4-7.09-8.4S103,204.67,103,210s2.92,8.45,7.11,8.45S117.19,215.28,117.19,210Z"/><path class="cls-3" d="M155.83,199.23v21.54a3,3,0,0,1-3.27,3.26h-.92a2.92,2.92,0,0,1-3.27-3.17v-1.42c-1.23,2.9-4.45,5-8.67,5-7.54,0-10.9-4.17-10.9-13V199.23a3,3,0,0,1,3.27-3.27H133a3,3,0,0,1,3.26,3.27v11.49c0,5.15,1.9,7.53,6.1,7.53s6-2.77,6-8V199.23a3,3,0,0,1,3.27-3.27h.92A3,3,0,0,1,155.83,199.23Z"/><path class="cls-3" d="M188.72,208.57v12.18a3,3,0,0,1-3.26,3.27h-.92a3,3,0,0,1-3.27-3.27V209.26c0-5.16-1.9-7.53-6.09-7.53s-6,2.76-6,8v11.06a3,3,0,0,1-3.27,3.27H165a3,3,0,0,1-3.27-3.27V199.21a3,3,0,0,1,3.27-3.27h.91a2.92,2.92,0,0,1,3.27,3.17v1.42c1.24-2.89,4.45-5,8.68-5C185.37,195.52,188.72,199.7,188.72,208.57Z"/><path class="cls-3" d="M193,210c0-9.43,5.27-14.49,12.27-14.49,3.93,0,7.71,1.94,9.14,5.38V190.08a3,3,0,0,1,3.27-3.27h.91a3,3,0,0,1,3.27,3.27V220.7a3,3,0,0,1-3.27,3.27h-.91c-2.06,0-3.27-1-3.27-2.8v-1.92c-1.43,3.34-5.21,5.29-9.1,5.29C198.31,224.54,193,219.42,193,210Zm21.64,0c0-5.17-2.85-8.4-7.13-8.4s-7.07,3.21-7.07,8.4,2.86,8.45,7.14,8.45S214.63,215.19,214.63,210Z"/><path class="cls-3" d="M244.29,199l-.06.54c-.23,2-1.39,2.6-3.43,3-3.71.63-5.63,3.11-5.63,8.25v10A3,3,0,0,1,231.9,224H231a3,3,0,0,1-3.27-3.27V199.21a3,3,0,0,1,3.27-3.27h.91c2.11,0,3.27,1,3.27,3v1.24a6.69,6.69,0,0,1,6.48-4.54C243.65,195.65,244.53,196.9,244.29,199Z"/><path class="cls-3" d="M254.38,229.67l2.49-5.78-10.09-24.17c-.94-2.24.11-3.76,2.49-3.76h1.33a3.66,3.66,0,0,1,3.73,2.65l6.53,17.25,6.51-17.25A3.66,3.66,0,0,1,271.1,196h1.26c2.46,0,3.51,1.53,2.58,3.76l-12.78,30.85a3.74,3.74,0,0,1-3.82,2.53H257C254.56,233.1,253.5,231.71,254.38,229.67Z"/></g></g></svg>