<svg xmlns="http://www.w3.org/2000/svg" viewBox="0 0 323.49 93.33"><defs><style>.cls-1{fill:#964bff;}.cls-2{fill:#fff;}.cls-3{fill:#fcfcfc;}</style></defs><title>2Asset 20</title><g id="Layer_2" data-name="Layer 2"><g id="Layer_1-2" data-name="Layer 1"><rect class="cls-1" width="323.49" height="93.33" rx="8.4" ry="8.4"/><path class="cls-2" d="M33.26,49,23.92,26.8C23,24.53,24,23,26.45,23h1.3a3.75,3.75,0,0,1,3.82,2.69L38.2,43l6.62-17.36A3.75,3.75,0,0,1,48.64,23h1.3c2.5,0,3.54,1.59,2.58,3.86L43.12,49a3.81,3.81,0,0,1-3.84,2.57H37.15A3.86,3.86,0,0,1,33.26,49Z"/><path class="cls-2" d="M54.19,37.25c0-9.6,5.37-14.77,12.51-14.77,4,0,7.82,2,9.31,5.49V25.86C76,24,77.22,23,79.34,23h.93a3,3,0,0,1,3.33,3.33V48.17a3,3,0,0,1-3.33,3.33h-.93c-2.1,0-3.33-1-3.33-2.84v-2c-1.46,3.4-5.31,5.39-9.28,5.39C59.61,52.09,54.19,46.87,54.19,37.25Zm22,0c0-5.27-2.94-8.55-7.26-8.55s-7.21,3.26-7.21,8.55,2.92,8.61,7.28,8.61S76.24,42.56,76.24,37.23Z"/><path class="cls-2" d="M89.44,48.22V17a3,3,0,0,1,3.33-3.33h1A3,3,0,0,1,97.09,17V48.22a3,3,0,0,1-3.34,3.33h-1A3,3,0,0,1,89.44,48.22Z"/><path class="cls-2" d="M107.57,51.55a3,3,0,0,1-3.33-3.33V28.68H103a2.74,2.74,0,0,1-3-2.9,2.69,2.69,0,0,1,3-2.85h1.2v-1c0-6.5,3.66-9.78,10.86-9.78.74,0,1.56,0,2.31.1,2.27.23,3.16,1.3,2.91,3s-1,2.56-2.68,2.51c-.45,0-.76,0-1.17,0-3,0-4.55,1.35-4.55,4.24v.93h4.25c2.15,0,3.33,1,3.33,2.85s-1.18,2.9-3.33,2.9h-4.25V48.22a3,3,0,0,1-3.34,3.33Z"/><path class="cls-2" d="M120.4,37.25c0-10.3,7.32-14.77,14.78-14.77S150,27,150,37.25s-7.28,14.84-14.79,14.84S120.4,47.65,120.4,37.25Zm22,0c0-5.35-3-8.55-7.22-8.55S128,31.85,128,37.23s3,8.61,7.24,8.61S142.39,42.66,142.39,37.23Z"/><path class="cls-2" d="M181.62,26.29v22a3,3,0,0,1-3.33,3.33h-.93c-2.15,0-3.33-1.18-3.33-3.23V46.89c-1.26,3-4.53,5.1-8.84,5.1-7.68,0-11.1-4.25-11.1-13.29V26.29A3,3,0,0,1,157.42,23h.93a3,3,0,0,1,3.33,3.33V38c0,5.26,1.94,7.68,6.21,7.68S174,42.86,174,37.57V26.29A3,3,0,0,1,177.36,23h.93A3,3,0,0,1,181.62,26.29Z"/><path class="cls-2" d="M215,35.82v12.4a3,3,0,0,1-3.33,3.33h-.94a3,3,0,0,1-3.33-3.33V36.52c0-5.26-1.93-7.68-6.21-7.68s-6.14,2.82-6.14,8.11V48.22a3,3,0,0,1-3.33,3.33h-.93a3,3,0,0,1-3.33-3.33V26.28A3,3,0,0,1,190.8,23h.93c2.15,0,3.33,1.18,3.33,3.23v1.44c1.27-2.95,4.54-5.1,8.84-5.1C211.59,22.52,215,26.78,215,35.82Z"/><path class="cls-2" d="M219.22,37.25c0-9.6,5.37-14.77,12.5-14.77,4,0,7.86,2,9.31,5.49V17a3,3,0,0,1,3.33-3.33h.93A3,3,0,0,1,248.62,17v31.2a3,3,0,0,1-3.33,3.33h-.93c-2.1,0-3.33-1-3.33-2.84v-2c-1.45,3.4-5.3,5.39-9.27,5.39C224.64,52.09,219.22,46.87,219.22,37.25Zm22,0c0-5.27-2.9-8.55-7.26-8.55s-7.21,3.26-7.21,8.55,2.92,8.61,7.28,8.61S241.26,42.56,241.26,37.23Z"/><path class="cls-2" d="M271.35,26.09l-.06.55c-.23,2.07-1.42,2.66-3.49,3-3.78.64-5.74,3.17-5.74,8.4V48.22a3,3,0,0,1-3.33,3.33h-.93a3,3,0,0,1-3.33-3.33V26.28A3,3,0,0,1,257.8,23h.93c2.15,0,3.33,1,3.33,3.06v1.27a6.8,6.8,0,0,1,6.6-4.62C270.7,22.66,271.59,23.93,271.35,26.09Z"/><path class="cls-2" d="M281.5,57.32l2.54-5.9L273.76,26.8c-1-2.28.11-3.84,2.54-3.84h1.35a3.75,3.75,0,0,1,3.81,2.71l6.65,17.57,6.63-17.57a3.73,3.73,0,0,1,3.8-2.71h1.29c2.5,0,3.57,1.57,2.62,3.84l-13,31.43a3.81,3.81,0,0,1-3.89,2.58h-1.4C281.69,60.81,280.61,59.39,281.5,57.32Z"/><path class="cls-3" d="M51.44,80.41,47.82,69.92c-.13-.37.06-.63.46-.63h.23a.6.6,0,0,1,.63.46L52.27,79l2.84-9.26a.59.59,0,0,1,.63-.46h.17a.6.6,0,0,1,.62.46L59.4,79l3.14-9.26a.6.6,0,0,1,.63-.46h.23c.4,0,.59.26.46.63L60.22,80.41a.61.61,0,0,1-.64.45h-.29a.6.6,0,0,1-.62-.46l-2.85-9.24L53,80.4a.59.59,0,0,1-.62.46h-.29A.63.63,0,0,1,51.44,80.41Z"/><path class="cls-3" d="M65.27,80.31V69.83a.5.5,0,0,1,.55-.56h6.35a.5.5,0,0,1,.55.56v.09a.5.5,0,0,1-.55.55H66.56v3.92h5.32a.5.5,0,0,1,.56.55V75a.5.5,0,0,1-.56.54H66.56v4.12h5.61a.5.5,0,0,1,.55.56v.09a.5.5,0,0,1-.55.55H65.82A.5.5,0,0,1,65.27,80.31Z"/><path class="cls-3" d="M79,80.31V69.83a.51.51,0,0,1,.56-.56h.18a.51.51,0,0,1,.56.56v4.58l5.48-4.86a.92.92,0,0,1,.68-.28h.41c.5,0,.65.36.26.69l-5.52,4.81,5.69,5.41c.36.36.24.68-.21.68h-.47a.85.85,0,0,1-.69-.29L80.26,75.1v5.21a.5.5,0,0,1-.56.55h-.18A.5.5,0,0,1,79,80.31Z"/><path class="cls-3" d="M88.94,80.31V69.83a.5.5,0,0,1,.55-.56h.38a.74.74,0,0,1,.68.35l6.59,9.3V69.83a.51.51,0,0,1,.56-.56h.18a.51.51,0,0,1,.56.56V80.31a.5.5,0,0,1-.56.55h-.32a.73.73,0,0,1-.68-.35l-6.65-9.36v9.16a.5.5,0,0,1-.55.55h-.19A.5.5,0,0,1,88.94,80.31Z"/><path class="cls-3" d="M100.5,75.08c0-4.13,2.57-5.93,5.46-5.93s5.42,1.8,5.42,5.93-2.57,6-5.46,6S100.5,79.29,100.5,75.08Zm9.59,0c0-3-1.6-4.74-4.13-4.74s-4.18,1.77-4.18,4.74,1.55,4.76,4.14,4.76S110.09,78.1,110.09,75.08Z"/><path class="cls-3" d="M115.61,80.41,112,69.92c-.14-.37.05-.63.45-.63h.24a.59.59,0,0,1,.62.46L116.43,79l2.85-9.26a.59.59,0,0,1,.62-.46h.17a.6.6,0,0,1,.63.46L123.56,79l3.14-9.26a.6.6,0,0,1,.63-.46h.24a.43.43,0,0,1,.45.63l-3.64,10.49a.6.6,0,0,1-.63.45h-.29a.6.6,0,0,1-.62-.46L120,71.16l-2.84,9.24a.59.59,0,0,1-.62.46h-.28A.62.62,0,0,1,115.61,80.41Z"/><path class="cls-3" d="M136,80.41,132.4,69.92c-.13-.37.06-.63.46-.63h.23a.6.6,0,0,1,.63.46L136.85,79l2.84-9.26a.59.59,0,0,1,.63-.46h.17a.6.6,0,0,1,.62.46L144,79l3.14-9.26a.6.6,0,0,1,.63-.46H148c.4,0,.59.26.46.63L144.8,80.41a.61.61,0,0,1-.64.45h-.29a.6.6,0,0,1-.62-.46l-2.85-9.24-2.83,9.24a.59.59,0,0,1-.62.46h-.29A.63.63,0,0,1,136,80.41Z"/><path class="cls-3" d="M149.85,80.31V69.83a.5.5,0,0,1,.55-.56h.18a.51.51,0,0,1,.56.56v4.56h6.37V69.83a.5.5,0,0,1,.55-.56h.18a.51.51,0,0,1,.56.56V80.31a.5.5,0,0,1-.56.55h-.18a.5.5,0,0,1-.55-.55V75.54h-6.37v4.77a.5.5,0,0,1-.56.55h-.18A.5.5,0,0,1,149.85,80.31Z"/><path class="cls-3" d="M170.61,80.86h-.24a.66.66,0,0,1-.64-.43l-.91-2.14h-6.4l-.9,2.14a.66.66,0,0,1-.65.43h-.22c-.42,0-.59-.26-.43-.64L164.8,69.7a.66.66,0,0,1,.65-.43h.33a.65.65,0,0,1,.65.43L171,80.22C171.18,80.6,171,80.86,170.61,80.86Zm-5-10.12-2.74,6.46h5.48Z"/><path class="cls-3" d="M173.73,80.31V70.47h-2.84a.5.5,0,0,1-.55-.55v-.09a.5.5,0,0,1,.55-.56h7a.51.51,0,0,1,.56.56v.09a.5.5,0,0,1-.56.55H175v9.84a.5.5,0,0,1-.56.55h-.18A.5.5,0,0,1,173.73,80.31Z"/><path class="cls-3" d="M187,80.31V70.47h-2.84a.5.5,0,0,1-.56-.55v-.09a.51.51,0,0,1,.56-.56h7a.5.5,0,0,1,.55.56v.09a.5.5,0,0,1-.55.55h-2.83v9.84a.5.5,0,0,1-.55.55h-.19A.5.5,0,0,1,187,80.31Z"/><path class="cls-3" d="M193.18,80.31V69.83a.51.51,0,0,1,.56-.56h.18a.5.5,0,0,1,.55.56v4.56h6.37V69.83a.51.51,0,0,1,.56-.56h.18a.51.51,0,0,1,.56.56V80.31a.5.5,0,0,1-.56.55h-.18a.5.5,0,0,1-.56-.55V75.54h-6.37v4.77a.5.5,0,0,1-.55.55h-.18A.5.5,0,0,1,193.18,80.31Z"/><path class="cls-3" d="M204.62,80.31V69.83a.51.51,0,0,1,.56-.56h6.35a.5.5,0,0,1,.55.56v.09a.5.5,0,0,1-.55.55h-5.61v3.92h5.32a.5.5,0,0,1,.56.55V75a.5.5,0,0,1-.56.54h-5.32v4.12h5.61a.5.5,0,0,1,.55.56v.09a.5.5,0,0,1-.55.55h-6.35A.5.5,0,0,1,204.62,80.31Z"/><path class="cls-3" d="M218.32,80.31V69.83a.51.51,0,0,1,.56-.56h2.21c4.72,0,6.66,1.8,6.66,5.79s-1.94,5.8-6.66,5.8h-2.21A.5.5,0,0,1,218.32,80.31Zm8.13-5.26c0-3.23-1.56-4.59-5.34-4.59h-1.5v9.2h1.51C224.89,79.66,226.45,78.29,226.45,75.05Z"/><path class="cls-3" d="M229.8,80.31V69.83a.51.51,0,0,1,.56-.56h6.34a.51.51,0,0,1,.56.56v.09a.5.5,0,0,1-.56.55h-5.61v3.92h5.33a.5.5,0,0,1,.55.55V75a.49.49,0,0,1-.55.54h-5.33v4.12h5.61a.51.51,0,0,1,.56.56v.09a.5.5,0,0,1-.56.55h-6.34A.5.5,0,0,1,229.8,80.31Z"/><path class="cls-3" d="M248.84,80.86h-.24a.67.67,0,0,1-.65-.43l-.9-2.14h-6.4l-.91,2.14a.65.65,0,0,1-.64.43h-.22c-.42,0-.59-.26-.44-.64L243,69.7a.65.65,0,0,1,.65-.43H244a.66.66,0,0,1,.65.43l4.59,10.52C249.41,80.6,249.25,80.86,248.84,80.86Zm-5-10.12-2.74,6.46h5.47Z"/><path class="cls-3" d="M250.66,80.31V69.83a.5.5,0,0,1,.55-.56h.18a.51.51,0,0,1,.56.56v9.83h4.84a.51.51,0,0,1,.56.56v.09a.5.5,0,0,1-.56.55h-5.58A.5.5,0,0,1,250.66,80.31Z"/><path class="cls-3" d="M263.23,80.31V69.83a.51.51,0,0,1,.56-.56H264a.51.51,0,0,1,.56.56V80.31a.5.5,0,0,1-.56.55h-.18A.5.5,0,0,1,263.23,80.31Z"/><path class="cls-3" d="M266.33,78.69c-.18-.31-.09-.52.3-.67l.13-.06c.3-.12.48,0,.74.31a4.23,4.23,0,0,0,3.51,1.6c1.82,0,3-.82,3-2.13,0-3.2-7.4-1-7.4-5.49,0-1.84,1.69-3.14,4-3.14a4.86,4.86,0,0,1,4.29,2.08c.19.31.09.55-.27.66l-.17.06c-.28.09-.49,0-.74-.31a3.61,3.61,0,0,0-3.06-1.33c-1.64,0-2.77.78-2.77,2,0,3.3,7.4,1,7.4,5.51,0,1.95-1.76,3.26-4.28,3.26A5.29,5.29,0,0,1,266.33,78.69Z"/></g></g></svg>