<svg xmlns="http://www.w3.org/2000/svg" viewBox="0 0 275.27 67.82"><defs><style>.cls-1{fill:#964bff;}</style></defs><title>2Asset 16</title><g id="Layer_2" data-name="Layer 2"><g id="Layer_1-2" data-name="Layer 1"><path class="cls-1" d="M9.51,36.2.34,14.4c-.93-2.23.1-3.77,2.49-3.77H4.1a3.68,3.68,0,0,1,3.75,2.64l6.51,17,6.5-17a3.68,3.68,0,0,1,3.75-2.64h1.27c2.46,0,3.48,1.56,2.53,3.79L19.19,36.21a3.74,3.74,0,0,1-3.76,2.52h-2.1A3.8,3.8,0,0,1,9.51,36.2Z"/><path class="cls-1" d="M30.21,24.66c0-9.43,5.27-14.5,12.27-14.5,3.93,0,7.68,1.95,9.13,5.38V13.48c0-1.82,1.2-2.86,3.27-2.86h.92a3,3,0,0,1,3.27,3.27V35.38a3,3,0,0,1-3.27,3.27h-.92c-2.06,0-3.27-1-3.27-2.8V33.93c-1.42,3.34-5.2,5.29-9.1,5.29C35.53,39.22,30.21,34.1,30.21,24.66Zm21.63,0c0-5.17-2.88-8.4-7.12-8.4s-7.08,3.21-7.08,8.4,2.87,8.45,7.14,8.45S51.84,29.86,51.84,24.64Z"/><path class="cls-1" d="M64.93,35.43V4.76A3,3,0,0,1,68.2,1.49h1a3,3,0,0,1,3.27,3.27V35.43a3,3,0,0,1-3.27,3.27h-1A3,3,0,0,1,64.93,35.43Z"/><path class="cls-1" d="M82.86,38.7a3,3,0,0,1-3.27-3.27V16.24H78.42a2.68,2.68,0,0,1-3-2.84,2.64,2.64,0,0,1,3-2.8h1.17v-1c0-6.38,3.6-9.6,10.67-9.6.72,0,1.53,0,2.26.1,2.23.22,3.11,1.27,2.86,3s-1,2.52-2.63,2.47c-.45,0-.75,0-1.15,0-3,0-4.47,1.32-4.47,4.16v.91h4.18c2.11,0,3.27,1,3.27,2.8s-1.16,2.84-3.27,2.84H87.13V35.43a3,3,0,0,1-3.27,3.27Z"/><path class="cls-1" d="M95.6,24.66c0-10.12,7.19-14.5,14.52-14.5s14.51,4.38,14.51,14.5-7.15,14.56-14.51,14.56S95.6,34.87,95.6,24.66Zm21.59,0c0-5.26-2.91-8.4-7.09-8.4S103,19.35,103,24.64s2.92,8.45,7.11,8.45S117.19,30,117.19,24.64Z"/><path class="cls-1" d="M155.83,13.9V35.44a3,3,0,0,1-3.27,3.27h-.92a2.92,2.92,0,0,1-3.27-3.17V34.12c-1.23,2.89-4.45,5-8.67,5-7.54,0-10.9-4.17-10.9-13V13.9a3,3,0,0,1,3.27-3.27H133a3,3,0,0,1,3.26,3.27V25.39c0,5.16,1.9,7.54,6.1,7.54s6-2.77,6-8V13.9a3,3,0,0,1,3.27-3.27h.92A3,3,0,0,1,155.83,13.9Z"/><path class="cls-1" d="M188.72,23.25V35.43a3,3,0,0,1-3.26,3.27h-.92a3,3,0,0,1-3.27-3.27V23.94c0-5.16-1.9-7.54-6.09-7.54s-6,2.77-6,8V35.43a3,3,0,0,1-3.27,3.27H165a3,3,0,0,1-3.27-3.27V13.89A3,3,0,0,1,165,10.62h.91a2.92,2.92,0,0,1,3.27,3.17v1.42c1.24-2.9,4.45-5,8.68-5C185.37,10.2,188.72,14.38,188.72,23.25Z"/><path class="cls-1" d="M193,24.66c0-9.43,5.27-14.5,12.27-14.5,3.93,0,7.71,1.95,9.14,5.38V4.76a3,3,0,0,1,3.27-3.27h.91a3,3,0,0,1,3.27,3.27V35.38a3,3,0,0,1-3.27,3.27h-.91c-2.06,0-3.27-1-3.27-2.8V33.93c-1.43,3.34-5.21,5.29-9.1,5.29C198.31,39.22,193,34.1,193,24.66Zm21.64,0c0-5.17-2.85-8.4-7.13-8.4s-7.07,3.21-7.07,8.4,2.86,8.45,7.14,8.45S214.63,29.86,214.63,24.64Z"/><path class="cls-1" d="M244.29,13.7l-.06.55c-.23,2-1.39,2.6-3.43,2.95-3.71.63-5.63,3.11-5.63,8.26v10a3,3,0,0,1-3.27,3.27H231a3,3,0,0,1-3.27-3.27V13.89A3,3,0,0,1,231,10.62h.91c2.11,0,3.27,1,3.27,3v1.25a6.68,6.68,0,0,1,6.48-4.54C243.65,10.33,244.53,11.58,244.29,13.7Z"/><path class="cls-1" d="M254.38,44.35l2.49-5.78L246.78,14.4c-.94-2.24.11-3.77,2.49-3.77h1.33a3.67,3.67,0,0,1,3.73,2.66l6.53,17.25,6.51-17.25a3.67,3.67,0,0,1,3.73-2.66h1.26c2.46,0,3.51,1.54,2.58,3.77L262.16,45.25a3.74,3.74,0,0,1-3.82,2.53H257C254.56,47.78,253.5,46.38,254.38,44.35Z"/><path class="cls-1" d="M27.45,67.19,23.83,56.7c-.13-.37.06-.63.46-.63h.23a.6.6,0,0,1,.63.46l3.13,9.26,2.84-9.25a.59.59,0,0,1,.63-.47h.17a.6.6,0,0,1,.62.47l2.87,9.25,3.14-9.26a.6.6,0,0,1,.63-.46h.23c.4,0,.59.26.46.63L36.23,67.19a.61.61,0,0,1-.64.46H35.3a.6.6,0,0,1-.62-.47l-2.85-9.24L29,67.18a.59.59,0,0,1-.62.47h-.29A.62.62,0,0,1,27.45,67.19Z"/><path class="cls-1" d="M41.28,67.09V56.61a.5.5,0,0,1,.55-.55h6.35a.5.5,0,0,1,.56.55v.09a.51.51,0,0,1-.56.56H42.57v3.91h5.32a.51.51,0,0,1,.56.56v.05a.5.5,0,0,1-.56.55H42.57v4.12h5.61a.5.5,0,0,1,.56.55v.09a.51.51,0,0,1-.56.56H41.83A.5.5,0,0,1,41.28,67.09Z"/><path class="cls-1" d="M55,67.09V56.61a.5.5,0,0,1,.56-.55h.18a.5.5,0,0,1,.56.55v4.58l5.48-4.86a1,1,0,0,1,.68-.27h.41c.5,0,.65.35.26.69l-5.52,4.81L63.27,67c.36.36.24.68-.21.68h-.47a.88.88,0,0,1-.69-.29l-5.63-5.47v5.2a.51.51,0,0,1-.56.56h-.18A.51.51,0,0,1,55,67.09Z"/><path class="cls-1" d="M65,67.09V56.61a.5.5,0,0,1,.55-.55h.38a.74.74,0,0,1,.68.35l6.59,9.29V56.61a.5.5,0,0,1,.56-.55h.18a.5.5,0,0,1,.56.55V67.09a.51.51,0,0,1-.56.56h-.32a.73.73,0,0,1-.68-.35l-6.65-9.36v9.15a.5.5,0,0,1-.55.56H65.5A.5.5,0,0,1,65,67.09Z"/><path class="cls-1" d="M76.51,61.87c0-4.13,2.57-5.94,5.46-5.94s5.42,1.81,5.42,5.94-2.57,5.95-5.46,5.95S76.51,66.08,76.51,61.87Zm9.59,0c0-3-1.6-4.74-4.13-4.74s-4.18,1.76-4.18,4.74,1.55,4.75,4.14,4.75S86.1,64.89,86.1,61.87Z"/><path class="cls-1" d="M91.62,67.19,88,56.7c-.14-.37,0-.63.45-.63h.24a.6.6,0,0,1,.62.46l3.13,9.26,2.85-9.25a.59.59,0,0,1,.62-.47h.17a.6.6,0,0,1,.63.47l2.86,9.25,3.14-9.26a.61.61,0,0,1,.63-.46h.24c.39,0,.59.26.45.63l-3.64,10.49a.6.6,0,0,1-.63.46h-.29a.6.6,0,0,1-.62-.47L96,57.94l-2.84,9.24a.58.58,0,0,1-.62.47h-.28A.62.62,0,0,1,91.62,67.19Z"/><path class="cls-1" d="M112,67.19,108.41,56.7c-.13-.37.06-.63.46-.63h.23a.6.6,0,0,1,.63.46l3.13,9.26,2.84-9.25a.59.59,0,0,1,.63-.47h.17a.6.6,0,0,1,.62.47L120,65.79l3.14-9.26a.6.6,0,0,1,.63-.46H124c.4,0,.59.26.46.63l-3.64,10.49a.61.61,0,0,1-.64.46h-.29a.6.6,0,0,1-.62-.47l-2.85-9.24-2.83,9.24a.59.59,0,0,1-.62.47h-.29A.62.62,0,0,1,112,67.19Z"/><path class="cls-1" d="M125.86,67.09V56.61a.5.5,0,0,1,.55-.55h.18a.5.5,0,0,1,.56.55v4.56h6.37V56.61a.5.5,0,0,1,.55-.55h.18a.5.5,0,0,1,.56.55V67.09a.51.51,0,0,1-.56.56h-.18a.5.5,0,0,1-.55-.56V62.33h-6.37v4.76a.51.51,0,0,1-.56.56h-.18A.5.5,0,0,1,125.86,67.09Z"/><path class="cls-1" d="M146.62,67.65h-.24a.66.66,0,0,1-.64-.43l-.91-2.14h-6.4l-.9,2.14a.66.66,0,0,1-.65.43h-.22c-.42,0-.59-.27-.43-.65l4.58-10.51a.66.66,0,0,1,.65-.43h.33a.65.65,0,0,1,.65.43L147,67C147.19,67.38,147,67.65,146.62,67.65Zm-5-10.13L138.89,64h5.48Z"/><path class="cls-1" d="M149.74,67.09V57.26H146.9a.5.5,0,0,1-.55-.56v-.09a.5.5,0,0,1,.55-.55h7a.5.5,0,0,1,.56.55v.09a.51.51,0,0,1-.56.56H151v9.83a.51.51,0,0,1-.56.56h-.18A.51.51,0,0,1,149.74,67.09Z"/><path class="cls-1" d="M163,67.09V57.26h-2.84a.51.51,0,0,1-.56-.56v-.09a.5.5,0,0,1,.56-.55h7a.5.5,0,0,1,.55.55v.09a.5.5,0,0,1-.55.56h-2.83v9.83a.5.5,0,0,1-.55.56h-.19A.5.5,0,0,1,163,67.09Z"/><path class="cls-1" d="M169.19,67.09V56.61a.5.5,0,0,1,.56-.55h.18a.5.5,0,0,1,.56.55v4.56h6.36V56.61a.5.5,0,0,1,.56-.55h.18a.5.5,0,0,1,.56.55V67.09a.51.51,0,0,1-.56.56h-.18a.51.51,0,0,1-.56-.56V62.33h-6.36v4.76a.51.51,0,0,1-.56.56h-.18A.51.51,0,0,1,169.19,67.09Z"/><path class="cls-1" d="M180.63,67.09V56.61a.5.5,0,0,1,.56-.55h6.35a.5.5,0,0,1,.55.55v.09a.5.5,0,0,1-.55.56h-5.61v3.91h5.32a.51.51,0,0,1,.56.56v.05a.5.5,0,0,1-.56.55h-5.32v4.12h5.61a.5.5,0,0,1,.55.55v.09a.5.5,0,0,1-.55.56h-6.35A.51.51,0,0,1,180.63,67.09Z"/><path class="cls-1" d="M194.33,67.09V56.61a.5.5,0,0,1,.56-.55h2.21c4.72,0,6.66,1.8,6.66,5.79s-1.94,5.8-6.66,5.8h-2.21A.51.51,0,0,1,194.33,67.09Zm8.13-5.25c0-3.23-1.56-4.59-5.34-4.59h-1.5v9.2h1.51C200.9,66.45,202.46,65.08,202.46,61.84Z"/><path class="cls-1" d="M205.81,67.09V56.61a.5.5,0,0,1,.56-.55h6.34a.5.5,0,0,1,.56.55v.09a.51.51,0,0,1-.56.56H207.1v3.91h5.33a.5.5,0,0,1,.55.56v.05a.5.5,0,0,1-.55.55H207.1v4.12h5.61a.5.5,0,0,1,.56.55v.09a.51.51,0,0,1-.56.56h-6.34A.51.51,0,0,1,205.81,67.09Z"/><path class="cls-1" d="M224.85,67.65h-.24a.67.67,0,0,1-.65-.43l-.9-2.14h-6.4l-.91,2.14a.64.64,0,0,1-.64.43h-.22c-.42,0-.59-.27-.43-.65L219,56.49a.66.66,0,0,1,.65-.43H220a.66.66,0,0,1,.65.43L225.26,67C225.42,67.38,225.26,67.65,224.85,67.65Zm-5-10.13L217.12,64h5.47Z"/><path class="cls-1" d="M226.67,67.09V56.61a.5.5,0,0,1,.55-.55h.19a.5.5,0,0,1,.55.55v9.84h4.84a.5.5,0,0,1,.56.55v.09a.51.51,0,0,1-.56.56h-5.58A.5.5,0,0,1,226.67,67.09Z"/><path class="cls-1" d="M239.24,67.09V56.61a.5.5,0,0,1,.56-.55H240a.5.5,0,0,1,.56.55V67.09a.51.51,0,0,1-.56.56h-.18A.51.51,0,0,1,239.24,67.09Z"/><path class="cls-1" d="M242.34,65.48c-.18-.32-.09-.52.3-.68l.13,0c.3-.12.48,0,.74.31a4.25,4.25,0,0,0,3.51,1.6c1.82,0,3-.82,3-2.13,0-3.21-7.4-1.05-7.4-5.49,0-1.85,1.69-3.15,4-3.15A4.88,4.88,0,0,1,250.92,58a.41.41,0,0,1-.26.67l-.18.06c-.28.08-.49,0-.74-.31a3.61,3.61,0,0,0-3.06-1.33c-1.64,0-2.77.77-2.77,2,0,3.29,7.4,1,7.4,5.5,0,2-1.76,3.27-4.28,3.27A5.31,5.31,0,0,1,242.34,65.48Z"/></g></g></svg>