<svg xmlns="http://www.w3.org/2000/svg" xmlns:xlink="http://www.w3.org/1999/xlink" viewBox="0 0 275.27 67.76"><defs><style>.cls-1{fill:url(#linear-gradient);}.cls-2{fill:#964bff;}</style><linearGradient id="linear-gradient" y1="23.89" x2="275.27" y2="23.89" gradientUnits="userSpaceOnUse"><stop offset="0" stop-color="#14e8d5"/><stop offset="1" stop-color="#964bff"/></linearGradient></defs><title>2Asset 17</title><g id="Layer_2" data-name="Layer 2"><g id="Layer_1-2" data-name="Layer 1"><path class="cls-1" d="M9.51,36.2.34,14.4c-.93-2.23.1-3.77,2.49-3.77H4.1a3.68,3.68,0,0,1,3.75,2.64l6.51,17,6.5-17a3.68,3.68,0,0,1,3.75-2.64h1.27c2.46,0,3.48,1.56,2.53,3.79L19.19,36.21a3.74,3.74,0,0,1-3.76,2.52h-2.1A3.8,3.8,0,0,1,9.51,36.2Zm20.7-11.54c0-9.43,5.27-14.5,12.27-14.5,3.93,0,7.68,1.95,9.13,5.38V13.48c0-1.82,1.2-2.86,3.27-2.86h.92a3,3,0,0,1,3.27,3.27V35.38a3,3,0,0,1-3.27,3.27h-.92c-2.06,0-3.27-1-3.27-2.8V33.93c-1.42,3.34-5.2,5.29-9.1,5.29C35.53,39.22,30.21,34.1,30.21,24.66Zm21.63,0c0-5.17-2.88-8.4-7.12-8.4s-7.08,3.21-7.08,8.4,2.87,8.45,7.14,8.45S51.84,29.86,51.84,24.64ZM64.93,35.43V4.76A3,3,0,0,1,68.2,1.49h1a3,3,0,0,1,3.27,3.27V35.43a3,3,0,0,1-3.27,3.27h-1A3,3,0,0,1,64.93,35.43ZM82.86,38.7a3,3,0,0,1-3.27-3.27V16.24H78.42a2.68,2.68,0,0,1-3-2.84,2.64,2.64,0,0,1,3-2.8h1.17v-1c0-6.38,3.6-9.6,10.67-9.6.72,0,1.53,0,2.26.1,2.23.22,3.11,1.27,2.86,3s-1,2.52-2.63,2.47c-.45,0-.75,0-1.15,0-3,0-4.47,1.32-4.47,4.16v.91h4.18c2.11,0,3.27,1,3.27,2.8s-1.16,2.84-3.27,2.84H87.13V35.43a3,3,0,0,1-3.27,3.27Zm12.74-14c0-10.12,7.19-14.5,14.52-14.5s14.51,4.38,14.51,14.5-7.15,14.56-14.51,14.56S95.6,34.87,95.6,24.66Zm21.59,0c0-5.26-2.91-8.4-7.09-8.4S103,19.35,103,24.64s2.92,8.45,7.11,8.45S117.19,30,117.19,24.64ZM155.83,13.9V35.44a3,3,0,0,1-3.27,3.27h-.92a2.92,2.92,0,0,1-3.27-3.17V34.12c-1.23,2.89-4.45,5-8.67,5-7.54,0-10.9-4.17-10.9-13V13.9a3,3,0,0,1,3.27-3.27H133a3,3,0,0,1,3.26,3.27V25.39c0,5.16,1.9,7.54,6.1,7.54s6-2.77,6-8V13.9a3,3,0,0,1,3.27-3.27h.92A3,3,0,0,1,155.83,13.9Zm32.89,9.35V35.43a3,3,0,0,1-3.26,3.27h-.92a3,3,0,0,1-3.27-3.27V23.94c0-5.16-1.9-7.54-6.09-7.54s-6,2.77-6,8V35.43a3,3,0,0,1-3.27,3.27H165a3,3,0,0,1-3.27-3.27V13.89A3,3,0,0,1,165,10.62h.91a2.92,2.92,0,0,1,3.27,3.17v1.42c1.24-2.9,4.45-5,8.68-5C185.37,10.2,188.72,14.38,188.72,23.25ZM193,24.66c0-9.43,5.27-14.5,12.27-14.5,3.93,0,7.71,1.95,9.14,5.38V4.76a3,3,0,0,1,3.27-3.27h.91a3,3,0,0,1,3.27,3.27V35.38a3,3,0,0,1-3.27,3.27h-.91c-2.06,0-3.27-1-3.27-2.8V33.93c-1.43,3.34-5.21,5.29-9.1,5.29C198.31,39.22,193,34.1,193,24.66Zm21.64,0c0-5.17-2.85-8.4-7.13-8.4s-7.07,3.21-7.07,8.4,2.86,8.45,7.14,8.45S214.63,29.86,214.63,24.64ZM244.29,13.7l-.06.55c-.23,2-1.39,2.6-3.43,2.95-3.71.63-5.63,3.11-5.63,8.26v10a3,3,0,0,1-3.27,3.27H231a3,3,0,0,1-3.27-3.27V13.89A3,3,0,0,1,231,10.62h.91c2.11,0,3.27,1,3.27,3v1.25a6.68,6.68,0,0,1,6.48-4.54C243.65,10.33,244.53,11.58,244.29,13.7Zm10.09,30.65,2.49-5.78L246.78,14.4c-.94-2.24.11-3.77,2.49-3.77h1.33a3.67,3.67,0,0,1,3.73,2.66l6.53,17.25,6.51-17.25a3.67,3.67,0,0,1,3.73-2.66h1.26c2.46,0,3.51,1.54,2.58,3.77L262.16,45.25a3.74,3.74,0,0,1-3.82,2.53H257C254.56,47.78,253.5,46.38,254.38,44.35Z"/><path class="cls-2" d="M27.45,67.13,23.83,56.65c-.13-.38.06-.63.46-.63h.23a.6.6,0,0,1,.63.45l3.13,9.26,2.84-9.25a.58.58,0,0,1,.63-.46h.17a.59.59,0,0,1,.62.46l2.87,9.25,3.14-9.26a.6.6,0,0,1,.63-.45h.23c.4,0,.59.25.46.63L36.23,67.13a.61.61,0,0,1-.64.46H35.3a.6.6,0,0,1-.62-.47l-2.85-9.23L29,67.12a.59.59,0,0,1-.62.47h-.29A.62.62,0,0,1,27.45,67.13Z"/><path class="cls-2" d="M41.28,67V56.56a.5.5,0,0,1,.55-.56h6.35a.51.51,0,0,1,.56.56v.08a.51.51,0,0,1-.56.56H42.57v3.91h5.32a.51.51,0,0,1,.56.56v0a.5.5,0,0,1-.56.55H42.57v4.12h5.61a.51.51,0,0,1,.56.56V67a.51.51,0,0,1-.56.56H41.83A.5.5,0,0,1,41.28,67Z"/><path class="cls-2" d="M55,67V56.56a.51.51,0,0,1,.56-.56h.18a.51.51,0,0,1,.56.56v4.57l5.48-4.86a1,1,0,0,1,.68-.27h.41c.5,0,.65.35.26.69L57.58,61.5l5.69,5.41c.36.36.24.68-.21.68h-.47a.88.88,0,0,1-.69-.29l-5.63-5.47V67a.51.51,0,0,1-.56.56h-.18A.51.51,0,0,1,55,67Z"/><path class="cls-2" d="M65,67V56.56A.5.5,0,0,1,65.5,56h.38a.74.74,0,0,1,.68.35l6.59,9.29V56.56a.51.51,0,0,1,.56-.56h.18a.51.51,0,0,1,.56.56V67a.51.51,0,0,1-.56.56h-.32a.73.73,0,0,1-.68-.35l-6.65-9.36V67a.5.5,0,0,1-.55.56H65.5A.5.5,0,0,1,65,67Z"/><path class="cls-2" d="M76.51,61.81c0-4.13,2.57-5.94,5.46-5.94s5.42,1.81,5.42,5.94-2.57,6-5.46,6S76.51,66,76.51,61.81Zm9.59,0c0-3-1.6-4.74-4.13-4.74s-4.18,1.76-4.18,4.74,1.55,4.76,4.14,4.76S86.1,64.83,86.1,61.81Z"/><path class="cls-2" d="M91.62,67.13,88,56.65c-.14-.38,0-.63.45-.63h.24a.59.59,0,0,1,.62.45l3.13,9.26,2.85-9.25a.58.58,0,0,1,.62-.46h.17a.59.59,0,0,1,.63.46l2.86,9.25,3.14-9.26a.6.6,0,0,1,.63-.45h.24c.39,0,.59.25.45.63l-3.64,10.48a.6.6,0,0,1-.63.46h-.29a.6.6,0,0,1-.62-.47L96,57.89l-2.84,9.23a.58.58,0,0,1-.62.47h-.28A.62.62,0,0,1,91.62,67.13Z"/><path class="cls-2" d="M112,67.13l-3.62-10.48c-.13-.38.06-.63.46-.63h.23a.6.6,0,0,1,.63.45l3.13,9.26,2.84-9.25a.58.58,0,0,1,.63-.46h.17a.59.59,0,0,1,.62.46L120,65.73l3.14-9.26a.6.6,0,0,1,.63-.45H124c.4,0,.59.25.46.63l-3.64,10.48a.61.61,0,0,1-.64.46h-.29a.6.6,0,0,1-.62-.47l-2.85-9.23-2.83,9.23a.59.59,0,0,1-.62.47h-.29A.62.62,0,0,1,112,67.13Z"/><path class="cls-2" d="M125.86,67V56.56a.5.5,0,0,1,.55-.56h.18a.51.51,0,0,1,.56.56v4.55h6.37V56.56a.5.5,0,0,1,.55-.56h.18a.51.51,0,0,1,.56.56V67a.51.51,0,0,1-.56.56h-.18a.5.5,0,0,1-.55-.56V62.27h-6.37V67a.51.51,0,0,1-.56.56h-.18A.5.5,0,0,1,125.86,67Z"/><path class="cls-2" d="M146.62,67.59h-.24a.66.66,0,0,1-.64-.43L144.83,65h-6.4l-.9,2.14a.66.66,0,0,1-.65.43h-.22c-.42,0-.59-.27-.43-.65l4.58-10.51a.66.66,0,0,1,.65-.43h.33a.65.65,0,0,1,.65.43L147,66.94C147.19,67.32,147,67.59,146.62,67.59Zm-5-10.13-2.74,6.46h5.48Z"/><path class="cls-2" d="M149.74,67V57.2H146.9a.5.5,0,0,1-.55-.56v-.08a.5.5,0,0,1,.55-.56h7a.51.51,0,0,1,.56.56v.08a.51.51,0,0,1-.56.56H151V67a.51.51,0,0,1-.56.56h-.18A.51.51,0,0,1,149.74,67Z"/><path class="cls-2" d="M163,67V57.2h-2.84a.51.51,0,0,1-.56-.56v-.08a.51.51,0,0,1,.56-.56h7a.5.5,0,0,1,.55.56v.08a.5.5,0,0,1-.55.56h-2.83V67a.5.5,0,0,1-.55.56h-.19A.5.5,0,0,1,163,67Z"/><path class="cls-2" d="M169.19,67V56.56a.51.51,0,0,1,.56-.56h.18a.51.51,0,0,1,.56.56v4.55h6.36V56.56a.51.51,0,0,1,.56-.56h.18a.51.51,0,0,1,.56.56V67a.51.51,0,0,1-.56.56h-.18a.51.51,0,0,1-.56-.56V62.27h-6.36V67a.51.51,0,0,1-.56.56h-.18A.51.51,0,0,1,169.19,67Z"/><path class="cls-2" d="M180.63,67V56.56a.51.51,0,0,1,.56-.56h6.35a.5.5,0,0,1,.55.56v.08a.5.5,0,0,1-.55.56h-5.61v3.91h5.32a.51.51,0,0,1,.56.56v0a.5.5,0,0,1-.56.55h-5.32v4.12h5.61a.5.5,0,0,1,.55.56V67a.5.5,0,0,1-.55.56h-6.35A.51.51,0,0,1,180.63,67Z"/><path class="cls-2" d="M194.33,67V56.56a.51.51,0,0,1,.56-.56h2.21c4.72,0,6.66,1.8,6.66,5.79s-1.94,5.8-6.66,5.8h-2.21A.51.51,0,0,1,194.33,67Zm8.13-5.25c0-3.23-1.56-4.59-5.34-4.59h-1.5v9.2h1.51C200.9,66.39,202.46,65,202.46,61.78Z"/><path class="cls-2" d="M205.81,67V56.56a.51.51,0,0,1,.56-.56h6.34a.51.51,0,0,1,.56.56v.08a.51.51,0,0,1-.56.56H207.1v3.91h5.33a.5.5,0,0,1,.55.56v0a.5.5,0,0,1-.55.55H207.1v4.12h5.61a.51.51,0,0,1,.56.56V67a.51.51,0,0,1-.56.56h-6.34A.51.51,0,0,1,205.81,67Z"/><path class="cls-2" d="M224.85,67.59h-.24a.67.67,0,0,1-.65-.43l-.9-2.14h-6.4l-.91,2.14a.64.64,0,0,1-.64.43h-.22c-.42,0-.59-.27-.43-.65L219,56.43a.66.66,0,0,1,.65-.43H220a.66.66,0,0,1,.65.43l4.59,10.51C225.42,67.32,225.26,67.59,224.85,67.59Zm-5-10.13-2.74,6.46h5.47Z"/><path class="cls-2" d="M226.67,67V56.56a.5.5,0,0,1,.55-.56h.19a.5.5,0,0,1,.55.56v9.83h4.84a.51.51,0,0,1,.56.56V67a.51.51,0,0,1-.56.56h-5.58A.5.5,0,0,1,226.67,67Z"/><path class="cls-2" d="M239.24,67V56.56a.51.51,0,0,1,.56-.56H240a.51.51,0,0,1,.56.56V67a.51.51,0,0,1-.56.56h-.18A.51.51,0,0,1,239.24,67Z"/><path class="cls-2" d="M242.34,65.42c-.18-.31-.09-.52.3-.68l.13,0c.3-.12.48,0,.74.31A4.25,4.25,0,0,0,247,66.6c1.82,0,3-.82,3-2.13,0-3.2-7.4-1-7.4-5.49,0-1.85,1.69-3.15,4-3.15a4.88,4.88,0,0,1,4.29,2.08.41.41,0,0,1-.26.67l-.18.06c-.28.08-.49,0-.74-.31A3.61,3.61,0,0,0,246.68,57c-1.64,0-2.77.77-2.77,2,0,3.29,7.4,1,7.4,5.5,0,2-1.76,3.27-4.28,3.27A5.31,5.31,0,0,1,242.34,65.42Z"/></g></g></svg>