<svg xmlns="http://www.w3.org/2000/svg" viewBox="0 0 323.49 69.32"><defs><style>.cls-1{fill:#6428a0;}.cls-2{fill:#fff;}</style></defs><title>2Asset 11</title><g id="Layer_2" data-name="Layer 2"><g id="Layer_1-2" data-name="Layer 1"><rect class="cls-1" width="323.49" height="69.32" rx="8.4" ry="8.4"/><path class="cls-2" d="M33.26,49,23.92,26.8C23,24.53,24,23,26.45,23h1.3a3.75,3.75,0,0,1,3.82,2.69L38.2,43l6.62-17.36A3.75,3.75,0,0,1,48.64,23h1.3c2.5,0,3.54,1.59,2.58,3.86L43.12,49a3.81,3.81,0,0,1-3.84,2.57H37.15A3.86,3.86,0,0,1,33.26,49Z"/><path class="cls-2" d="M54.19,37.25c0-9.6,5.37-14.77,12.51-14.77,4,0,7.82,2,9.31,5.49V25.86C76,24,77.22,23,79.34,23h.93a3,3,0,0,1,3.33,3.33V48.17a3,3,0,0,1-3.33,3.33h-.93c-2.1,0-3.33-1-3.33-2.84v-2c-1.46,3.4-5.31,5.39-9.28,5.39C59.61,52.09,54.19,46.87,54.19,37.25Zm22,0c0-5.27-2.94-8.55-7.26-8.55s-7.21,3.26-7.21,8.55,2.92,8.61,7.28,8.61S76.24,42.56,76.24,37.23Z"/><path class="cls-2" d="M89.44,48.22V17a3,3,0,0,1,3.33-3.33h1A3,3,0,0,1,97.09,17V48.22a3,3,0,0,1-3.34,3.33h-1A3,3,0,0,1,89.44,48.22Z"/><path class="cls-2" d="M107.57,51.55a3,3,0,0,1-3.33-3.33V28.68H103a2.74,2.74,0,0,1-3-2.9,2.69,2.69,0,0,1,3-2.85h1.2v-1c0-6.5,3.66-9.78,10.86-9.78.74,0,1.56,0,2.31.1,2.27.23,3.16,1.3,2.91,3s-1,2.56-2.68,2.51c-.45,0-.76,0-1.17,0-3,0-4.55,1.35-4.55,4.24v.93h4.25c2.15,0,3.33,1,3.33,2.85s-1.18,2.9-3.33,2.9h-4.25V48.22a3,3,0,0,1-3.34,3.33Z"/><path class="cls-2" d="M120.4,37.25c0-10.3,7.32-14.77,14.78-14.77S150,27,150,37.25s-7.28,14.84-14.79,14.84S120.4,47.65,120.4,37.25Zm22,0c0-5.35-3-8.55-7.22-8.55S128,31.85,128,37.23s3,8.61,7.24,8.61S142.39,42.66,142.39,37.23Z"/><path class="cls-2" d="M181.62,26.29v22a3,3,0,0,1-3.33,3.33h-.93c-2.15,0-3.33-1.18-3.33-3.23V46.89c-1.26,3-4.53,5.1-8.84,5.1-7.68,0-11.1-4.25-11.1-13.29V26.29A3,3,0,0,1,157.42,23h.93a3,3,0,0,1,3.33,3.33V38c0,5.26,1.94,7.68,6.21,7.68S174,42.86,174,37.57V26.29A3,3,0,0,1,177.36,23h.93A3,3,0,0,1,181.62,26.29Z"/><path class="cls-2" d="M215,35.82v12.4a3,3,0,0,1-3.33,3.33h-.94a3,3,0,0,1-3.33-3.33V36.52c0-5.26-1.93-7.68-6.21-7.68s-6.14,2.82-6.14,8.11V48.22a3,3,0,0,1-3.33,3.33h-.93a3,3,0,0,1-3.33-3.33V26.28A3,3,0,0,1,190.8,23h.93c2.15,0,3.33,1.18,3.33,3.23v1.44c1.27-2.95,4.54-5.1,8.84-5.1C211.59,22.52,215,26.78,215,35.82Z"/><path class="cls-2" d="M219.22,37.25c0-9.6,5.37-14.77,12.5-14.77,4,0,7.86,2,9.31,5.49V17a3,3,0,0,1,3.33-3.33h.93A3,3,0,0,1,248.62,17v31.2a3,3,0,0,1-3.33,3.33h-.93c-2.1,0-3.33-1-3.33-2.84v-2c-1.45,3.4-5.3,5.39-9.27,5.39C224.64,52.09,219.22,46.87,219.22,37.25Zm22,0c0-5.27-2.9-8.55-7.26-8.55s-7.21,3.26-7.21,8.55,2.92,8.61,7.28,8.61S241.26,42.56,241.26,37.23Z"/><path class="cls-2" d="M271.35,26.09l-.06.55c-.23,2.07-1.42,2.66-3.49,3-3.78.64-5.74,3.17-5.74,8.4V48.22a3,3,0,0,1-3.33,3.33h-.93a3,3,0,0,1-3.33-3.33V26.28A3,3,0,0,1,257.8,23h.93c2.15,0,3.33,1,3.33,3.06v1.27a6.8,6.8,0,0,1,6.6-4.62C270.7,22.66,271.59,23.93,271.35,26.09Z"/><path class="cls-2" d="M281.5,57.32l2.54-5.9L273.76,26.8c-1-2.28.11-3.84,2.54-3.84h1.35a3.75,3.75,0,0,1,3.81,2.71l6.65,17.57,6.63-17.57a3.73,3.73,0,0,1,3.8-2.71h1.29c2.5,0,3.57,1.57,2.62,3.84l-13,31.43a3.81,3.81,0,0,1-3.89,2.58h-1.4C281.69,60.81,280.61,59.39,281.5,57.32Z"/></g></g></svg>