<svg xmlns="http://www.w3.org/2000/svg" xmlns:xlink="http://www.w3.org/1999/xlink" viewBox="0 0 275.27 47.78"><defs><style>.cls-1{fill:url(#linear-gradient);}</style><linearGradient id="linear-gradient" y1="23.89" x2="275.27" y2="23.89" gradientUnits="userSpaceOnUse"><stop offset="0" stop-color="#14e8d5"/><stop offset="1" stop-color="#964bff"/></linearGradient></defs><title>2Asset 6</title><g id="Layer_2" data-name="Layer 2"><g id="Layer_1-2" data-name="Layer 1"><path class="cls-1" d="M9.51,36.2.34,14.4c-.93-2.23.1-3.77,2.49-3.77H4.1a3.68,3.68,0,0,1,3.75,2.64l6.51,17,6.5-17a3.68,3.68,0,0,1,3.75-2.64h1.27c2.46,0,3.48,1.56,2.53,3.79L19.19,36.21a3.74,3.74,0,0,1-3.76,2.52h-2.1A3.8,3.8,0,0,1,9.51,36.2Zm20.7-11.54c0-9.43,5.27-14.5,12.27-14.5,3.93,0,7.68,1.95,9.13,5.38V13.48c0-1.82,1.2-2.86,3.27-2.86h.92a3,3,0,0,1,3.27,3.27V35.38a3,3,0,0,1-3.27,3.27h-.92c-2.06,0-3.27-1-3.27-2.8V33.93c-1.42,3.34-5.2,5.29-9.1,5.29C35.53,39.22,30.21,34.1,30.21,24.66Zm21.63,0c0-5.17-2.88-8.4-7.12-8.4s-7.08,3.21-7.08,8.4,2.87,8.45,7.14,8.45S51.84,29.86,51.84,24.64ZM64.93,35.43V4.76A3,3,0,0,1,68.2,1.49h1a3,3,0,0,1,3.27,3.27V35.43a3,3,0,0,1-3.27,3.27h-1A3,3,0,0,1,64.93,35.43ZM82.86,38.7a3,3,0,0,1-3.27-3.27V16.24H78.42a2.68,2.68,0,0,1-3-2.84,2.64,2.64,0,0,1,3-2.8h1.17v-1c0-6.38,3.6-9.6,10.67-9.6.72,0,1.53,0,2.26.1,2.23.22,3.11,1.27,2.86,3s-1,2.52-2.63,2.47c-.45,0-.75,0-1.15,0-3,0-4.47,1.32-4.47,4.16v.91h4.18c2.11,0,3.27,1,3.27,2.8s-1.16,2.84-3.27,2.84H87.13V35.43a3,3,0,0,1-3.27,3.27Zm12.74-14c0-10.12,7.19-14.5,14.52-14.5s14.51,4.38,14.51,14.5-7.15,14.56-14.51,14.56S95.6,34.87,95.6,24.66Zm21.59,0c0-5.26-2.91-8.4-7.09-8.4S103,19.35,103,24.64s2.92,8.45,7.11,8.45S117.19,30,117.19,24.64ZM155.83,13.9V35.44a3,3,0,0,1-3.27,3.27h-.92a2.92,2.92,0,0,1-3.27-3.17V34.12c-1.23,2.89-4.45,5-8.67,5-7.54,0-10.9-4.17-10.9-13V13.9a3,3,0,0,1,3.27-3.27H133a3,3,0,0,1,3.26,3.27V25.39c0,5.16,1.9,7.54,6.1,7.54s6-2.77,6-8V13.9a3,3,0,0,1,3.27-3.27h.92A3,3,0,0,1,155.83,13.9Zm32.89,9.35V35.43a3,3,0,0,1-3.26,3.27h-.92a3,3,0,0,1-3.27-3.27V23.94c0-5.16-1.9-7.54-6.09-7.54s-6,2.77-6,8V35.43a3,3,0,0,1-3.27,3.27H165a3,3,0,0,1-3.27-3.27V13.89A3,3,0,0,1,165,10.62h.91a2.92,2.92,0,0,1,3.27,3.17v1.42c1.24-2.9,4.45-5,8.68-5C185.37,10.2,188.72,14.38,188.72,23.25ZM193,24.66c0-9.43,5.27-14.5,12.27-14.5,3.93,0,7.71,1.95,9.14,5.38V4.76a3,3,0,0,1,3.27-3.27h.91a3,3,0,0,1,3.27,3.27V35.38a3,3,0,0,1-3.27,3.27h-.91c-2.06,0-3.27-1-3.27-2.8V33.93c-1.43,3.34-5.21,5.29-9.1,5.29C198.31,39.22,193,34.1,193,24.66Zm21.64,0c0-5.17-2.85-8.4-7.13-8.4s-7.07,3.21-7.07,8.4,2.86,8.45,7.14,8.45S214.63,29.86,214.63,24.64ZM244.29,13.7l-.06.55c-.23,2-1.39,2.6-3.43,2.95-3.71.63-5.63,3.11-5.63,8.26v10a3,3,0,0,1-3.27,3.27H231a3,3,0,0,1-3.27-3.27V13.89A3,3,0,0,1,231,10.62h.91c2.11,0,3.27,1,3.27,3v1.25a6.68,6.68,0,0,1,6.48-4.54C243.65,10.33,244.53,11.58,244.29,13.7Zm10.09,30.65,2.49-5.78L246.78,14.4c-.94-2.24.11-3.77,2.49-3.77h1.33a3.67,3.67,0,0,1,3.73,2.66l6.53,17.25,6.51-17.25a3.67,3.67,0,0,1,3.73-2.66h1.26c2.46,0,3.51,1.54,2.58,3.77L262.16,45.25a3.74,3.74,0,0,1-3.82,2.53H257C254.56,47.78,253.5,46.38,254.38,44.35Z"/></g></g></svg>