<svg xmlns="http://www.w3.org/2000/svg" xmlns:xlink="http://www.w3.org/1999/xlink" viewBox="0 0 364.44 78.3"><defs><style>.cls-1{fill:url(#linear-gradient);}.cls-2{fill:url(#linear-gradient-2);}.cls-3{fill:#964bff;}</style><linearGradient id="linear-gradient" x1="65.6" y1="-3.2" x2="35.24" y2="65.9" gradientUnits="userSpaceOnUse"><stop offset="0" stop-color="#14e8d5"/><stop offset="1" stop-color="#964bff"/></linearGradient><linearGradient id="linear-gradient-2" y1="31.9" x2="49.42" y2="31.9" gradientUnits="userSpaceOnUse"><stop offset="0" stop-color="#fff25f"/><stop offset="1" stop-color="#ff3c91"/></linearGradient></defs><title>2Asset 15</title><g id="Layer_2" data-name="Layer 2"><g id="Layer_1-2" data-name="Layer 1"><path class="cls-1" d="M28.77,63.81H48.51a2.22,2.22,0,0,0,2-1.07L73.57,2.5c.63-1.18-.42-2.5-2-2.5H51.84a2.22,2.22,0,0,0-2,1.07L26.78,61.31C26.15,62.49,27.2,63.81,28.77,63.81Z"/><path class="cls-2" d="M49.42,63.81H26.35a2.21,2.21,0,0,1-2-1.07L.18,2.49C-.44,1.31.61,0,2.17,0H21.93a2.21,2.21,0,0,1,2,1.07Z"/><path class="cls-3" d="M98.68,47l-9.17-21.8c-.94-2.23.1-3.77,2.48-3.77h1.28A3.68,3.68,0,0,1,97,24.08l6.51,17,6.49-17a3.7,3.7,0,0,1,3.76-2.64h1.27c2.45,0,3.47,1.56,2.53,3.78L108.36,47a3.74,3.74,0,0,1-3.77,2.52H102.5A3.79,3.79,0,0,1,98.68,47Z"/><path class="cls-3" d="M119.37,35.46C119.37,26,124.65,21,131.65,21c3.93,0,7.68,2,9.13,5.38V24.29c0-1.82,1.19-2.86,3.27-2.86H145a3,3,0,0,1,3.27,3.27V46.19A3,3,0,0,1,145,49.45h-.92c-2.06,0-3.27-1-3.27-2.79V44.74c-1.42,3.34-5.2,5.29-9.1,5.29C124.69,50,119.37,44.91,119.37,35.46Zm21.64,0c0-5.18-2.88-8.4-7.12-8.4s-7.08,3.21-7.08,8.4,2.87,8.45,7.14,8.45S141,40.67,141,35.45Z"/><path class="cls-3" d="M154.1,46.23V15.56a3,3,0,0,1,3.27-3.27h1a3,3,0,0,1,3.27,3.27V46.23a3,3,0,0,1-3.27,3.27h-1A3,3,0,0,1,154.1,46.23Z"/><path class="cls-3" d="M172,49.5a3,3,0,0,1-3.27-3.27V27.05h-1.18a2.68,2.68,0,0,1-2.94-2.85,2.64,2.64,0,0,1,2.94-2.79h1.18v-1c0-6.38,3.6-9.6,10.67-9.6.72,0,1.53,0,2.25.1,2.24.22,3.11,1.27,2.87,3s-1,2.52-2.63,2.47c-.45,0-.75,0-1.15,0-3,0-4.47,1.33-4.47,4.16v.92h4.17c2.11,0,3.27,1,3.27,2.79s-1.16,2.85-3.27,2.85H176.3V46.23A3,3,0,0,1,173,49.5Z"/><path class="cls-3" d="M184.77,35.46C184.77,25.35,192,21,199.28,21s14.51,4.38,14.51,14.49S206.65,50,199.28,50,184.77,45.67,184.77,35.46Zm21.59,0c0-5.26-2.92-8.4-7.09-8.4s-7.08,3.11-7.08,8.4,2.92,8.45,7.11,8.45S206.36,40.77,206.36,35.45Z"/><path class="cls-3" d="M245,24.71V46.25a3,3,0,0,1-3.27,3.27h-.92a2.92,2.92,0,0,1-3.27-3.17V44.93c-1.24,2.89-4.45,5-8.67,5-7.55,0-10.9-4.17-10.9-13V24.71a3,3,0,0,1,3.27-3.27h.91a3,3,0,0,1,3.27,3.27V36.2c0,5.16,1.9,7.53,6.09,7.53s6-2.76,6-7.95V24.71a3,3,0,0,1,3.27-3.27h.92A3,3,0,0,1,245,24.71Z"/><path class="cls-3" d="M277.89,34.06V46.23a3,3,0,0,1-3.27,3.27h-.91a3,3,0,0,1-3.27-3.27V34.74c0-5.15-1.9-7.53-6.09-7.53s-6,2.77-6,8V46.23a3,3,0,0,1-3.27,3.27h-.92a3,3,0,0,1-3.26-3.27V24.7a3,3,0,0,1,3.26-3.27h.92a2.92,2.92,0,0,1,3.27,3.17V26c1.24-2.9,4.45-5,8.67-5C274.54,21,277.89,25.19,277.89,34.06Z"/><path class="cls-3" d="M282.16,35.46C282.16,26,287.43,21,294.43,21c3.93,0,7.71,2,9.14,5.38V15.56a3,3,0,0,1,3.26-3.27h.92A3,3,0,0,1,311,15.56V46.19a3,3,0,0,1-3.27,3.26h-.92c-2.05,0-3.26-1-3.26-2.79V44.74c-1.43,3.34-5.21,5.29-9.11,5.29C287.48,50,282.16,44.91,282.16,35.46Zm21.63,0c0-5.18-2.84-8.4-7.12-8.4s-7.08,3.21-7.08,8.4,2.87,8.45,7.15,8.45S303.79,40.67,303.79,35.45Z"/><path class="cls-3" d="M333.46,24.51l-.06.54c-.23,2-1.4,2.61-3.43,3-3.71.63-5.63,3.11-5.63,8.25v10a3,3,0,0,1-3.27,3.27h-.91a3,3,0,0,1-3.27-3.27V24.69a3,3,0,0,1,3.27-3.26h.91c2.11,0,3.27,1,3.27,3v1.25a6.68,6.68,0,0,1,6.48-4.54C332.82,21.14,333.7,22.39,333.46,24.51Z"/><path class="cls-3" d="M343.55,55.16,346,49.37l-10.1-24.16c-.93-2.24.11-3.77,2.5-3.77h1.32a3.67,3.67,0,0,1,3.74,2.66L350,41.35l6.5-17.25a3.68,3.68,0,0,1,3.74-2.66h1.26c2.45,0,3.5,1.54,2.58,3.77L351.33,56.06a3.75,3.75,0,0,1-3.83,2.52h-1.37C343.73,58.58,342.67,57.19,343.55,55.16Z"/><path class="cls-3" d="M107.27,77.67l-3.62-10.48c-.14-.38,0-.63.45-.63h.24A.59.59,0,0,1,105,67l3.13,9.26L110.94,67a.58.58,0,0,1,.62-.46h.17a.59.59,0,0,1,.63.46l2.86,9.25L118.36,67a.6.6,0,0,1,.63-.45h.24a.43.43,0,0,1,.45.63L116,77.67a.6.6,0,0,1-.63.46h-.29a.6.6,0,0,1-.62-.47l-2.85-9.23-2.84,9.23a.59.59,0,0,1-.62.47h-.28A.62.62,0,0,1,107.27,77.67Z"/><path class="cls-3" d="M121.09,77.57V67.09a.5.5,0,0,1,.56-.55H128a.5.5,0,0,1,.56.55v.09a.51.51,0,0,1-.56.56h-5.61v3.91h5.33a.5.5,0,0,1,.55.56v.05a.5.5,0,0,1-.55.55h-5.33v4.12H128a.51.51,0,0,1,.56.56v.08a.51.51,0,0,1-.56.56h-6.34A.51.51,0,0,1,121.09,77.57Z"/><path class="cls-3" d="M134.79,77.57V67.09a.5.5,0,0,1,.55-.55h.18a.5.5,0,0,1,.56.55v4.58l5.49-4.86a.92.92,0,0,1,.68-.27h.4c.51,0,.65.35.27.69L137.4,72l5.68,5.41c.37.36.24.68-.2.68h-.48a.89.89,0,0,1-.69-.29l-5.63-5.47v5.2a.51.51,0,0,1-.56.56h-.18A.5.5,0,0,1,134.79,77.57Z"/><path class="cls-3" d="M144.76,77.57V67.09a.5.5,0,0,1,.56-.55h.37a.73.73,0,0,1,.68.35l6.6,9.29V67.09a.5.5,0,0,1,.55-.55h.19a.5.5,0,0,1,.55.55V77.57a.5.5,0,0,1-.55.56h-.33a.74.74,0,0,1-.68-.35l-6.65-9.36v9.15a.5.5,0,0,1-.55.56h-.18A.51.51,0,0,1,144.76,77.57Z"/><path class="cls-3" d="M156.33,72.35c0-4.13,2.57-5.94,5.45-5.94s5.43,1.81,5.43,5.94-2.58,6-5.46,6S156.33,76.56,156.33,72.35Zm9.59,0c0-3-1.61-4.74-4.14-4.74s-4.18,1.76-4.18,4.74,1.55,4.76,4.15,4.76S165.92,75.37,165.92,72.35Z"/><path class="cls-3" d="M171.43,77.67l-3.62-10.48c-.13-.38.06-.63.46-.63h.23a.6.6,0,0,1,.63.45l3.12,9.26L175.1,67a.58.58,0,0,1,.62-.46h.18a.59.59,0,0,1,.62.46l2.87,9.25L182.53,67a.6.6,0,0,1,.63-.45h.23c.4,0,.59.25.46.63l-3.64,10.48a.61.61,0,0,1-.64.46h-.29a.6.6,0,0,1-.62-.47l-2.85-9.23L173,77.66a.59.59,0,0,1-.62.47h-.29A.62.62,0,0,1,171.43,77.67Z"/><path class="cls-3" d="M191.85,77.67l-3.62-10.48c-.14-.38.05-.63.45-.63h.24a.59.59,0,0,1,.62.45l3.13,9.26L195.52,67a.58.58,0,0,1,.62-.46h.17a.59.59,0,0,1,.63.46l2.86,9.25L202.94,67a.6.6,0,0,1,.63-.45h.24a.43.43,0,0,1,.45.63l-3.64,10.48a.6.6,0,0,1-.63.46h-.29a.6.6,0,0,1-.62-.47l-2.85-9.23-2.84,9.23a.59.59,0,0,1-.62.47h-.28A.62.62,0,0,1,191.85,77.67Z"/><path class="cls-3" d="M205.67,77.57V67.09a.5.5,0,0,1,.56-.55h.18a.5.5,0,0,1,.55.55v4.56h6.37V67.09a.5.5,0,0,1,.55-.55h.19a.5.5,0,0,1,.55.55V77.57a.5.5,0,0,1-.55.56h-.19a.5.5,0,0,1-.55-.56V72.81H207v4.76a.5.5,0,0,1-.55.56h-.18A.51.51,0,0,1,205.67,77.57Z"/><path class="cls-3" d="M226.44,78.13h-.24a.66.66,0,0,1-.65-.43l-.91-2.14h-6.4l-.9,2.14a.66.66,0,0,1-.65.43h-.22c-.41,0-.59-.27-.43-.65L220.63,67a.64.64,0,0,1,.64-.43h.34a.64.64,0,0,1,.64.43l4.6,10.51C227,77.86,226.84,78.13,226.44,78.13Zm-5-10.13-2.73,6.46h5.47Z"/><path class="cls-3" d="M229.56,77.57V67.74h-2.84a.51.51,0,0,1-.56-.56v-.09a.5.5,0,0,1,.56-.55h6.95a.5.5,0,0,1,.56.55v.09a.51.51,0,0,1-.56.56h-2.82v9.83a.51.51,0,0,1-.56.56h-.18A.5.5,0,0,1,229.56,77.57Z"/><path class="cls-3" d="M242.77,77.57V67.74h-2.84a.5.5,0,0,1-.55-.56v-.09a.5.5,0,0,1,.55-.55h7a.5.5,0,0,1,.56.55v.09a.51.51,0,0,1-.56.56h-2.82v9.83a.51.51,0,0,1-.56.56h-.18A.51.51,0,0,1,242.77,77.57Z"/><path class="cls-3" d="M249,77.57V67.09a.5.5,0,0,1,.55-.55h.18a.5.5,0,0,1,.56.55v4.56h6.37V67.09a.5.5,0,0,1,.55-.55h.18a.5.5,0,0,1,.56.55V77.57a.51.51,0,0,1-.56.56h-.18a.5.5,0,0,1-.55-.56V72.81H250.3v4.76a.51.51,0,0,1-.56.56h-.18A.5.5,0,0,1,249,77.57Z"/><path class="cls-3" d="M260.45,77.57V67.09a.5.5,0,0,1,.55-.55h6.35a.5.5,0,0,1,.56.55v.09a.51.51,0,0,1-.56.56h-5.61v3.91h5.32a.51.51,0,0,1,.56.56v.05a.5.5,0,0,1-.56.55h-5.32v4.12h5.61a.51.51,0,0,1,.56.56v.08a.51.51,0,0,1-.56.56H261A.5.5,0,0,1,260.45,77.57Z"/><path class="cls-3" d="M274.14,77.57V67.09a.5.5,0,0,1,.56-.55h2.21c4.72,0,6.66,1.8,6.66,5.79s-1.94,5.8-6.66,5.8H274.7A.51.51,0,0,1,274.14,77.57Zm8.13-5.25c0-3.23-1.56-4.59-5.33-4.59h-1.5v9.2H277C280.71,76.93,282.27,75.56,282.27,72.32Z"/><path class="cls-3" d="M285.62,77.57V67.09a.5.5,0,0,1,.56-.55h6.35a.5.5,0,0,1,.55.55v.09a.5.5,0,0,1-.55.56h-5.61v3.91h5.32a.51.51,0,0,1,.56.56v.05a.5.5,0,0,1-.56.55h-5.32v4.12h5.61a.5.5,0,0,1,.55.56v.08a.5.5,0,0,1-.55.56h-6.35A.51.51,0,0,1,285.62,77.57Z"/><path class="cls-3" d="M304.66,78.13h-.24a.66.66,0,0,1-.64-.43l-.91-2.14h-6.4l-.9,2.14a.66.66,0,0,1-.65.43h-.22c-.41,0-.59-.27-.43-.65L298.85,67a.66.66,0,0,1,.65-.43h.34a.64.64,0,0,1,.64.43l4.6,10.51C305.23,77.86,305.07,78.13,304.66,78.13Zm-5-10.13-2.73,6.46h5.47Z"/><path class="cls-3" d="M306.48,77.57V67.09a.5.5,0,0,1,.56-.55h.18a.5.5,0,0,1,.55.55v9.84h4.84a.51.51,0,0,1,.56.56v.08a.51.51,0,0,1-.56.56H307A.51.51,0,0,1,306.48,77.57Z"/><path class="cls-3" d="M319.06,77.57V67.09a.5.5,0,0,1,.55-.55h.19a.5.5,0,0,1,.55.55V77.57a.5.5,0,0,1-.55.56h-.19A.5.5,0,0,1,319.06,77.57Z"/><path class="cls-3" d="M322.16,76c-.19-.31-.09-.52.29-.68l.13,0c.3-.12.49,0,.75.31a4.22,4.22,0,0,0,3.5,1.6c1.83,0,3-.82,3-2.13,0-3.21-7.4-1.05-7.4-5.49,0-1.85,1.69-3.15,4-3.15a4.88,4.88,0,0,1,4.29,2.08.41.41,0,0,1-.26.67l-.17.06c-.29.08-.49,0-.74-.31a3.63,3.63,0,0,0-3.07-1.33c-1.64,0-2.77.77-2.77,2,0,3.29,7.41,1,7.41,5.5,0,2-1.76,3.27-4.29,3.27A5.28,5.28,0,0,1,322.16,76Z"/></g></g></svg>