<svg xmlns="http://www.w3.org/2000/svg" xmlns:xlink="http://www.w3.org/1999/xlink" viewBox="0 0 275.27 253.2"><defs><style>.cls-1{fill:url(#linear-gradient);}.cls-2{fill:url(#linear-gradient-2);}.cls-3{fill:#964bff;}</style><linearGradient id="linear-gradient" x1="207.75" y1="-7.84" x2="133.39" y2="161.43" gradientUnits="userSpaceOnUse"><stop offset="0" stop-color="#14e8d5"/><stop offset="1" stop-color="#964bff"/></linearGradient><linearGradient id="linear-gradient-2" x1="47.07" y1="78.15" x2="168.13" y2="78.15" gradientUnits="userSpaceOnUse"><stop offset="0" stop-color="#fff25f"/><stop offset="1" stop-color="#ff3c91"/></linearGradient></defs><title>2Asset 14</title><g id="Layer_2" data-name="Layer 2"><g id="Layer_1-2" data-name="Layer 1"><path class="cls-1" d="M117.53,156.3H165.9a5.47,5.47,0,0,0,4.88-2.62L227.29,6.12c1.54-2.89-1-6.12-4.88-6.12H174.05a5.47,5.47,0,0,0-4.88,2.62L112.66,150.18C111.12,153.07,113.7,156.3,117.53,156.3Z"/><path class="cls-2" d="M168.13,156.3H111.62a5.43,5.43,0,0,1-4.86-2.61L47.51,6.09C46,3.22,48.55,0,52.37,0h48.42a5.45,5.45,0,0,1,4.85,2.61Z"/><path class="cls-3" d="M9.51,221.52.34,199.73c-.93-2.24.1-3.77,2.49-3.77H4.1a3.67,3.67,0,0,1,3.75,2.63l6.51,17,6.5-17A3.67,3.67,0,0,1,24.61,196h1.27c2.46,0,3.48,1.55,2.53,3.78l-9.22,21.79a3.74,3.74,0,0,1-3.76,2.52h-2.1A3.79,3.79,0,0,1,9.51,221.52Z"/><path class="cls-3" d="M30.21,210c0-9.43,5.27-14.49,12.27-14.49,3.93,0,7.68,1.94,9.13,5.38V198.8c0-1.81,1.2-2.86,3.27-2.86h.92a3,3,0,0,1,3.27,3.27V220.7A3,3,0,0,1,55.8,224h-.92c-2.06,0-3.27-1-3.27-2.8v-1.92c-1.42,3.34-5.2,5.29-9.1,5.29C35.53,224.54,30.21,219.42,30.21,210Zm21.63,0c0-5.17-2.88-8.4-7.12-8.4s-7.08,3.21-7.08,8.4,2.87,8.45,7.14,8.45S51.84,215.19,51.84,210Z"/><path class="cls-3" d="M64.93,220.75V190.08a3,3,0,0,1,3.27-3.27h1a3,3,0,0,1,3.27,3.27v30.67A3,3,0,0,1,69.17,224h-1A3,3,0,0,1,64.93,220.75Z"/><path class="cls-3" d="M82.86,224a3,3,0,0,1-3.27-3.27V201.56H78.42a2.68,2.68,0,0,1-3-2.84,2.64,2.64,0,0,1,3-2.8h1.17v-1c0-6.38,3.6-9.61,10.67-9.61.72,0,1.53,0,2.26.11,2.23.21,3.11,1.27,2.86,3s-1,2.52-2.63,2.47c-.45,0-.75,0-1.15,0-3,0-4.47,1.32-4.47,4.16v.91h4.18c2.11,0,3.27,1,3.27,2.8s-1.16,2.84-3.27,2.84H87.13v19.19A3,3,0,0,1,83.86,224Z"/><path class="cls-3" d="M95.6,210c0-10.11,7.19-14.49,14.52-14.49s14.51,4.38,14.51,14.49-7.15,14.56-14.51,14.56S95.6,220.19,95.6,210Zm21.59,0c0-5.25-2.91-8.4-7.09-8.4S103,204.67,103,210s2.92,8.45,7.11,8.45S117.19,215.28,117.19,210Z"/><path class="cls-3" d="M155.83,199.23v21.54a3,3,0,0,1-3.27,3.26h-.92a2.92,2.92,0,0,1-3.27-3.17v-1.42c-1.23,2.9-4.45,5-8.67,5-7.54,0-10.9-4.17-10.9-13V199.23a3,3,0,0,1,3.27-3.27H133a3,3,0,0,1,3.26,3.27v11.49c0,5.15,1.9,7.53,6.1,7.53s6-2.77,6-8V199.23a3,3,0,0,1,3.27-3.27h.92A3,3,0,0,1,155.83,199.23Z"/><path class="cls-3" d="M188.72,208.57v12.18a3,3,0,0,1-3.26,3.27h-.92a3,3,0,0,1-3.27-3.27V209.26c0-5.16-1.9-7.53-6.09-7.53s-6,2.76-6,8v11.06a3,3,0,0,1-3.27,3.27H165a3,3,0,0,1-3.27-3.27V199.21a3,3,0,0,1,3.27-3.27h.91a2.92,2.92,0,0,1,3.27,3.17v1.42c1.24-2.89,4.45-5,8.68-5C185.37,195.52,188.72,199.7,188.72,208.57Z"/><path class="cls-3" d="M193,210c0-9.43,5.27-14.49,12.27-14.49,3.93,0,7.71,1.94,9.14,5.38V190.08a3,3,0,0,1,3.27-3.27h.91a3,3,0,0,1,3.27,3.27V220.7a3,3,0,0,1-3.27,3.27h-.91c-2.06,0-3.27-1-3.27-2.8v-1.92c-1.43,3.34-5.21,5.29-9.1,5.29C198.31,224.54,193,219.42,193,210Zm21.64,0c0-5.17-2.85-8.4-7.13-8.4s-7.07,3.21-7.07,8.4,2.86,8.45,7.14,8.45S214.63,215.19,214.63,210Z"/><path class="cls-3" d="M244.29,199l-.06.54c-.23,2-1.39,2.6-3.43,3-3.71.63-5.63,3.11-5.63,8.25v10A3,3,0,0,1,231.9,224H231a3,3,0,0,1-3.27-3.27V199.21a3,3,0,0,1,3.27-3.27h.91c2.11,0,3.27,1,3.27,3v1.24a6.69,6.69,0,0,1,6.48-4.54C243.65,195.65,244.53,196.9,244.29,199Z"/><path class="cls-3" d="M254.38,229.67l2.49-5.78-10.09-24.17c-.94-2.24.11-3.76,2.49-3.76h1.33a3.66,3.66,0,0,1,3.73,2.65l6.53,17.25,6.51-17.25A3.66,3.66,0,0,1,271.1,196h1.26c2.46,0,3.51,1.53,2.58,3.76l-12.78,30.85a3.74,3.74,0,0,1-3.82,2.53H257C254.56,233.1,253.5,231.71,254.38,229.67Z"/><path class="cls-3" d="M27.93,252.57,24.3,242.09c-.13-.38.06-.63.46-.63H25a.6.6,0,0,1,.63.45l3.13,9.26,2.85-9.25a.57.57,0,0,1,.62-.46h.17a.6.6,0,0,1,.63.46l2.86,9.25L39,241.91a.6.6,0,0,1,.63-.45h.23c.4,0,.59.25.46.63L36.7,252.57a.61.61,0,0,1-.64.46h-.28a.59.59,0,0,1-.62-.47l-2.85-9.23-2.84,9.23a.59.59,0,0,1-.62.47h-.29A.61.61,0,0,1,27.93,252.57Z"/><path class="cls-3" d="M41.75,252.47V242a.5.5,0,0,1,.55-.55h6.35a.5.5,0,0,1,.56.55v.09a.51.51,0,0,1-.56.56H43v3.91h5.32a.51.51,0,0,1,.56.56v0a.5.5,0,0,1-.56.55H43v4.12h5.61a.51.51,0,0,1,.56.56v.08a.51.51,0,0,1-.56.56H42.3A.5.5,0,0,1,41.75,252.47Z"/><path class="cls-3" d="M55.44,252.47V242a.5.5,0,0,1,.56-.55h.18a.5.5,0,0,1,.56.55v4.58l5.48-4.86a1,1,0,0,1,.68-.27h.41c.5,0,.65.35.27.69l-5.52,4.81,5.68,5.41c.37.36.24.68-.21.68h-.47a.89.89,0,0,1-.69-.29l-5.63-5.47v5.2a.51.51,0,0,1-.56.56H56A.51.51,0,0,1,55.44,252.47Z"/><path class="cls-3" d="M65.42,252.47V242a.5.5,0,0,1,.56-.55h.37a.74.74,0,0,1,.68.35l6.6,9.29V242a.5.5,0,0,1,.55-.55h.18a.5.5,0,0,1,.56.55v10.48a.51.51,0,0,1-.56.56H74a.73.73,0,0,1-.68-.35l-6.65-9.36v9.15a.5.5,0,0,1-.55.56H66A.51.51,0,0,1,65.42,252.47Z"/><path class="cls-3" d="M77,247.25c0-4.13,2.57-5.94,5.45-5.94s5.43,1.81,5.43,5.94-2.58,5.95-5.46,5.95S77,251.46,77,247.25Zm9.58,0c0-3-1.6-4.74-4.13-4.74s-4.18,1.76-4.18,4.74S79.81,252,82.41,252,86.57,250.27,86.57,247.25Z"/><path class="cls-3" d="M92.09,252.57l-3.62-10.48a.43.43,0,0,1,.45-.63h.24a.6.6,0,0,1,.63.45l3.12,9.26,2.85-9.25a.58.58,0,0,1,.62-.46h.18a.59.59,0,0,1,.62.46l2.86,9.25,3.15-9.26a.59.59,0,0,1,.62-.45h.24c.4,0,.59.25.45.63l-3.63,10.48a.61.61,0,0,1-.64.46h-.29a.6.6,0,0,1-.62-.47l-2.85-9.23-2.83,9.23A.59.59,0,0,1,93,253h-.28A.62.62,0,0,1,92.09,252.57Z"/><path class="cls-3" d="M112.51,252.57l-3.63-10.48c-.13-.38.06-.63.46-.63h.23a.6.6,0,0,1,.63.45l3.13,9.26,2.85-9.25a.58.58,0,0,1,.62-.46H117a.6.6,0,0,1,.63.46l2.86,9.25,3.14-9.26a.6.6,0,0,1,.63-.45h.23c.4,0,.59.25.46.63l-3.64,10.48a.61.61,0,0,1-.64.46h-.28a.59.59,0,0,1-.62-.47l-2.85-9.23-2.84,9.23a.59.59,0,0,1-.62.47h-.29A.61.61,0,0,1,112.51,252.57Z"/><path class="cls-3" d="M126.33,252.47V242a.5.5,0,0,1,.55-.55h.19a.5.5,0,0,1,.55.55v4.56H134V242a.5.5,0,0,1,.55-.55h.19a.5.5,0,0,1,.55.55v10.48a.5.5,0,0,1-.55.56h-.19a.5.5,0,0,1-.55-.56v-4.76h-6.37v4.76a.5.5,0,0,1-.55.56h-.19A.5.5,0,0,1,126.33,252.47Z"/><path class="cls-3" d="M147.09,253h-.23a.66.66,0,0,1-.65-.43l-.91-2.14h-6.4l-.9,2.14a.66.66,0,0,1-.65.43h-.22c-.41,0-.59-.27-.43-.65l4.59-10.51a.64.64,0,0,1,.64-.43h.34a.64.64,0,0,1,.64.43l4.6,10.51C147.67,252.76,147.5,253,147.09,253Zm-5-10.13-2.73,6.46h5.47Z"/><path class="cls-3" d="M150.22,252.47v-9.83h-2.85a.5.5,0,0,1-.55-.56V242a.5.5,0,0,1,.55-.55h7a.5.5,0,0,1,.56.55v.09a.51.51,0,0,1-.56.56h-2.82v9.83a.51.51,0,0,1-.56.56h-.18A.5.5,0,0,1,150.22,252.47Z"/><path class="cls-3" d="M163.43,252.47v-9.83h-2.84a.51.51,0,0,1-.56-.56V242a.5.5,0,0,1,.56-.55h7a.5.5,0,0,1,.55.55v.09a.5.5,0,0,1-.55.56h-2.83v9.83a.5.5,0,0,1-.55.56H164A.51.51,0,0,1,163.43,252.47Z"/><path class="cls-3" d="M169.66,252.47V242a.5.5,0,0,1,.56-.55h.18a.5.5,0,0,1,.56.55v4.56h6.36V242a.5.5,0,0,1,.56-.55h.18a.5.5,0,0,1,.56.55v10.48a.51.51,0,0,1-.56.56h-.18a.51.51,0,0,1-.56-.56v-4.76H171v4.76a.51.51,0,0,1-.56.56h-.18A.51.51,0,0,1,169.66,252.47Z"/><path class="cls-3" d="M181.11,252.47V242a.5.5,0,0,1,.55-.55H188a.5.5,0,0,1,.56.55v.09a.51.51,0,0,1-.56.56H182.4v3.91h5.32a.51.51,0,0,1,.56.56v0a.5.5,0,0,1-.56.55H182.4v4.12H188a.51.51,0,0,1,.56.56v.08a.51.51,0,0,1-.56.56h-6.35A.5.5,0,0,1,181.11,252.47Z"/><path class="cls-3" d="M194.8,252.47V242a.5.5,0,0,1,.56-.55h2.21c4.72,0,6.66,1.8,6.66,5.79s-1.94,5.8-6.66,5.8h-2.21A.51.51,0,0,1,194.8,252.47Zm8.13-5.25c0-3.23-1.56-4.59-5.33-4.59h-1.5v9.2h1.51C201.37,251.83,202.93,250.46,202.93,247.22Z"/><path class="cls-3" d="M206.28,252.47V242a.5.5,0,0,1,.56-.55h6.35a.5.5,0,0,1,.55.55v.09a.5.5,0,0,1-.55.56h-5.61v3.91h5.32a.5.5,0,0,1,.55.56v0a.5.5,0,0,1-.55.55h-5.32v4.12h5.61a.5.5,0,0,1,.55.56v.08a.5.5,0,0,1-.55.56h-6.35A.51.51,0,0,1,206.28,252.47Z"/><path class="cls-3" d="M225.32,253h-.24a.66.66,0,0,1-.64-.43l-.91-2.14h-6.4l-.9,2.14a.66.66,0,0,1-.65.43h-.22c-.42,0-.59-.27-.43-.65l4.58-10.51a.66.66,0,0,1,.65-.43h.33a.65.65,0,0,1,.65.43l4.6,10.51C225.89,252.76,225.73,253,225.32,253Zm-5-10.13-2.74,6.46h5.48Z"/><path class="cls-3" d="M227.14,252.47V242a.5.5,0,0,1,.56-.55h.18a.5.5,0,0,1,.55.55v9.84h4.84a.51.51,0,0,1,.56.56v.08a.51.51,0,0,1-.56.56H227.7A.51.51,0,0,1,227.14,252.47Z"/><path class="cls-3" d="M239.72,252.47V242a.5.5,0,0,1,.55-.55h.18a.5.5,0,0,1,.56.55v10.48a.51.51,0,0,1-.56.56h-.18A.5.5,0,0,1,239.72,252.47Z"/><path class="cls-3" d="M242.82,250.86c-.19-.31-.09-.52.29-.68l.13-.05c.3-.12.49,0,.74.31a4.25,4.25,0,0,0,3.51,1.6c1.82,0,3-.82,3-2.13,0-3.21-7.4-1-7.4-5.49,0-1.85,1.68-3.15,4-3.15a4.88,4.88,0,0,1,4.29,2.08.41.41,0,0,1-.26.67l-.18.06c-.28.08-.49,0-.74-.31a3.59,3.59,0,0,0-3.06-1.33c-1.64,0-2.77.77-2.77,2,0,3.29,7.41,1,7.41,5.5,0,2-1.76,3.27-4.29,3.27A5.28,5.28,0,0,1,242.82,250.86Z"/></g></g></svg>