<svg viewBox="0 0 180.68 156.3" xmlns="http://www.w3.org/2000/svg" xmlns:xlink="http://www.w3.org/1999/xlink"><linearGradient id="a" gradientUnits="userSpaceOnUse" x1="160.68" x2="86.32" y1="-7.84" y2="161.43"><stop offset="0" stop-color="#14e8d5"/><stop offset="1" stop-color="#964bff"/></linearGradient><linearGradient id="b" gradientUnits="userSpaceOnUse" x2="121.06" y1="78.15" y2="78.15"><stop offset="0" stop-color="#fff25f"/><stop offset="1" stop-color="#ff3c91"/></linearGradient><path d="m70.47 156.3h48.36a5.47 5.47 0 0 0 4.88-2.62l56.52-147.56c1.53-2.89-1-6.12-4.88-6.12h-48.35a5.49 5.49 0 0 0 -4.88 2.62l-56.53 147.56c-1.53 2.89 1.04 6.12 4.88 6.12z" fill="url(#a)"/><path d="m121.06 156.3h-56.51a5.44 5.44 0 0 1 -4.86-2.61l-59.24-147.6c-1.53-2.87 1.04-6.09 4.85-6.09h48.42a5.46 5.46 0 0 1 4.86 2.61z" fill="url(#b)"/></svg>