<svg viewBox="0 0 364.44 78.3" xmlns="http://www.w3.org/2000/svg" xmlns:xlink="http://www.w3.org/1999/xlink"><linearGradient id="a" gradientUnits="userSpaceOnUse" x1="65.6" x2="35.24" y1="-3.2" y2="65.9"><stop offset="0" stop-color="#14e8d5"/><stop offset="1" stop-color="#964bff"/></linearGradient><linearGradient id="b" gradientUnits="userSpaceOnUse" x2="49.42" y1="31.9" y2="31.9"><stop offset="0" stop-color="#fff25f"/><stop offset="1" stop-color="#ff3c91"/></linearGradient><path d="m28.77 63.81h19.74a2.22 2.22 0 0 0 2-1.07l23.06-60.24c.63-1.18-.42-2.5-2-2.5h-19.73a2.22 2.22 0 0 0 -2 1.07l-23.06 60.24c-.63 1.18.42 2.5 1.99 2.5z" fill="url(#a)"/><path d="m49.42 63.81h-23.07a2.21 2.21 0 0 1 -2-1.07l-24.17-60.25c-.62-1.18.43-2.49 1.99-2.49h19.76a2.21 2.21 0 0 1 2 1.07z" fill="url(#b)"/><g fill="#964bff"><path d="m98.68 47-9.17-21.8c-.94-2.23.1-3.77 2.48-3.77h1.28a3.68 3.68 0 0 1 3.73 2.65l6.51 17 6.49-17a3.7 3.7 0 0 1 3.76-2.64h1.27c2.45 0 3.47 1.56 2.53 3.78l-9.2 21.78a3.74 3.74 0 0 1 -3.77 2.52h-2.09a3.79 3.79 0 0 1 -3.82-2.52z"/><path d="m119.37 35.46c0-9.46 5.28-14.46 12.28-14.46 3.93 0 7.68 2 9.13 5.38v-2.09c0-1.82 1.19-2.86 3.27-2.86h.95a3 3 0 0 1 3.27 3.27v21.49a3 3 0 0 1 -3.27 3.26h-.92c-2.06 0-3.27-1-3.27-2.79v-1.92c-1.42 3.34-5.2 5.29-9.1 5.29-7.02-.03-12.34-5.12-12.34-14.57zm21.64 0c0-5.18-2.88-8.4-7.12-8.4s-7.08 3.21-7.08 8.4 2.87 8.45 7.14 8.45 7.05-3.24 7.05-8.46z"/><path d="m154.1 46.23v-30.67a3 3 0 0 1 3.27-3.27h1a3 3 0 0 1 3.27 3.27v30.67a3 3 0 0 1 -3.27 3.27h-1a3 3 0 0 1 -3.27-3.27z"/><path d="m172 49.5a3 3 0 0 1 -3.27-3.27v-19.18h-1.18a2.68 2.68 0 0 1 -2.94-2.85 2.64 2.64 0 0 1 2.94-2.79h1.18v-1c0-6.38 3.6-9.6 10.67-9.6.72 0 1.53 0 2.25.1 2.24.22 3.11 1.27 2.87 3s-1 2.52-2.63 2.47c-.45 0-.75 0-1.15 0-3 0-4.47 1.33-4.47 4.16v.92h4.17c2.11 0 3.27 1 3.27 2.79s-1.16 2.85-3.27 2.85h-4.14v19.13a3 3 0 0 1 -3.3 3.27z"/><path d="m184.77 35.46c0-10.11 7.23-14.46 14.51-14.46s14.51 4.38 14.51 14.49-7.14 14.51-14.51 14.51-14.51-4.33-14.51-14.54zm21.59 0c0-5.26-2.92-8.4-7.09-8.4s-7.08 3.11-7.08 8.4 2.92 8.45 7.11 8.45 7.06-3.14 7.06-8.46z"/><path d="m245 24.71v21.54a3 3 0 0 1 -3.27 3.27h-.92a2.92 2.92 0 0 1 -3.27-3.17v-1.42c-1.24 2.89-4.45 5-8.67 5-7.55 0-10.9-4.17-10.9-13v-12.22a3 3 0 0 1 3.27-3.27h.91a3 3 0 0 1 3.27 3.27v11.49c0 5.16 1.9 7.53 6.09 7.53s6-2.76 6-7.95v-11.07a3 3 0 0 1 3.27-3.27h.92a3 3 0 0 1 3.3 3.27z"/><path d="m277.89 34.06v12.17a3 3 0 0 1 -3.27 3.27h-.91a3 3 0 0 1 -3.27-3.27v-11.49c0-5.15-1.9-7.53-6.09-7.53s-6 2.77-6 8v11.02a3 3 0 0 1 -3.27 3.27h-.92a3 3 0 0 1 -3.26-3.27v-21.53a3 3 0 0 1 3.26-3.27h.92a2.92 2.92 0 0 1 3.27 3.17v1.4c1.24-2.9 4.45-5 8.67-5 7.52 0 10.87 4.19 10.87 13.06z"/><path d="m282.16 35.46c0-9.46 5.27-14.46 12.27-14.46 3.93 0 7.71 2 9.14 5.38v-10.82a3 3 0 0 1 3.26-3.27h.92a3 3 0 0 1 3.25 3.27v30.63a3 3 0 0 1 -3.27 3.26h-.92c-2.05 0-3.26-1-3.26-2.79v-1.92c-1.43 3.34-5.21 5.29-9.11 5.29-6.96-.03-12.28-5.12-12.28-14.57zm21.63 0c0-5.18-2.84-8.4-7.12-8.4s-7.08 3.21-7.08 8.4 2.87 8.45 7.15 8.45 7.05-3.24 7.05-8.46z"/><path d="m333.46 24.51-.06.54c-.23 2-1.4 2.61-3.43 3-3.71.63-5.63 3.11-5.63 8.25v10a3 3 0 0 1 -3.27 3.27h-.91a3 3 0 0 1 -3.27-3.27v-21.61a3 3 0 0 1 3.27-3.26h.91c2.11 0 3.27 1 3.27 3v1.25a6.68 6.68 0 0 1 6.48-4.54c2 0 2.88 1.25 2.64 3.37z"/><path d="m343.55 55.16 2.45-5.79-10.1-24.16c-.93-2.24.11-3.77 2.5-3.77h1.32a3.67 3.67 0 0 1 3.74 2.66l6.54 17.25 6.5-17.25a3.68 3.68 0 0 1 3.74-2.66h1.26c2.45 0 3.5 1.54 2.58 3.77l-12.75 30.85a3.75 3.75 0 0 1 -3.83 2.52h-1.37c-2.4 0-3.46-1.39-2.58-3.42z"/><path d="m107.27 77.67-3.62-10.48c-.14-.38 0-.63.45-.63h.24a.59.59 0 0 1 .66.44l3.13 9.26 2.81-9.26a.58.58 0 0 1 .62-.46h.17a.59.59 0 0 1 .63.46l2.86 9.25 3.14-9.25a.6.6 0 0 1 .63-.45h.24a.43.43 0 0 1 .45.63l-3.68 10.49a.6.6 0 0 1 -.63.46h-.29a.6.6 0 0 1 -.62-.47l-2.85-9.23-2.84 9.23a.59.59 0 0 1 -.62.47h-.28a.62.62 0 0 1 -.6-.46z"/><path d="m121.09 77.57v-10.48a.5.5 0 0 1 .56-.55h6.35a.5.5 0 0 1 .56.55v.09a.51.51 0 0 1 -.56.56h-5.61v3.91h5.33a.5.5 0 0 1 .55.56v.05a.5.5 0 0 1 -.55.55h-5.33v4.12h5.61a.51.51 0 0 1 .56.56v.08a.51.51 0 0 1 -.56.56h-6.34a.51.51 0 0 1 -.57-.56z"/><path d="m134.79 77.57v-10.48a.5.5 0 0 1 .55-.55h.18a.5.5 0 0 1 .56.55v4.58l5.49-4.86a.92.92 0 0 1 .68-.27h.4c.51 0 .65.35.27.69l-5.52 4.77 5.68 5.41c.37.36.24.68-.2.68h-.48a.89.89 0 0 1 -.69-.29l-5.63-5.47v5.2a.51.51 0 0 1 -.56.56h-.18a.5.5 0 0 1 -.55-.52z"/><path d="m144.76 77.57v-10.48a.5.5 0 0 1 .56-.55h.37a.73.73 0 0 1 .68.35l6.6 9.29v-9.09a.5.5 0 0 1 .55-.55h.19a.5.5 0 0 1 .55.55v10.48a.5.5 0 0 1 -.55.56h-.33a.74.74 0 0 1 -.68-.35l-6.65-9.36v9.15a.5.5 0 0 1 -.55.56h-.18a.51.51 0 0 1 -.56-.56z"/><path d="m156.33 72.35c0-4.13 2.57-5.94 5.45-5.94s5.43 1.81 5.43 5.94-2.58 6-5.46 6-5.42-1.79-5.42-6zm9.59 0c0-3-1.61-4.74-4.14-4.74s-4.18 1.76-4.18 4.74 1.55 4.76 4.15 4.76 4.17-1.74 4.17-4.76z"/><path d="m171.43 77.67-3.62-10.48c-.13-.38.06-.63.46-.63h.23a.6.6 0 0 1 .63.45l3.12 9.26 2.85-9.27a.58.58 0 0 1 .62-.46h.18a.59.59 0 0 1 .62.46l2.87 9.25 3.14-9.25a.6.6 0 0 1 .63-.45h.23c.4 0 .59.25.46.63l-3.64 10.48a.61.61 0 0 1 -.64.46h-.29a.6.6 0 0 1 -.62-.47l-2.85-9.23-2.81 9.24a.59.59 0 0 1 -.62.47h-.29a.62.62 0 0 1 -.66-.46z"/><path d="m191.85 77.67-3.62-10.48c-.14-.38.05-.63.45-.63h.24a.59.59 0 0 1 .62.45l3.13 9.26 2.85-9.27a.58.58 0 0 1 .62-.46h.17a.59.59 0 0 1 .63.46l2.86 9.25 3.14-9.25a.6.6 0 0 1 .63-.45h.24a.43.43 0 0 1 .45.63l-3.64 10.48a.6.6 0 0 1 -.63.46h-.29a.6.6 0 0 1 -.62-.47l-2.85-9.23-2.84 9.23a.59.59 0 0 1 -.62.47h-.28a.62.62 0 0 1 -.64-.45z"/><path d="m205.67 77.57v-10.48a.5.5 0 0 1 .56-.55h.18a.5.5 0 0 1 .55.55v4.56h6.37v-4.56a.5.5 0 0 1 .55-.55h.19a.5.5 0 0 1 .55.55v10.48a.5.5 0 0 1 -.55.56h-.19a.5.5 0 0 1 -.55-.56v-4.76h-6.33v4.76a.5.5 0 0 1 -.55.56h-.18a.51.51 0 0 1 -.6-.56z"/><path d="m226.44 78.13h-.24a.66.66 0 0 1 -.65-.43l-.91-2.14h-6.4l-.9 2.14a.66.66 0 0 1 -.65.43h-.22c-.41 0-.59-.27-.43-.65l4.59-10.48a.64.64 0 0 1 .64-.43h.34a.64.64 0 0 1 .64.43l4.6 10.51c.15.35-.01.62-.41.62zm-5-10.13-2.73 6.46h5.47z"/><path d="m229.56 77.57v-9.83h-2.84a.51.51 0 0 1 -.56-.56v-.09a.5.5 0 0 1 .56-.55h6.95a.5.5 0 0 1 .56.55v.09a.51.51 0 0 1 -.56.56h-2.82v9.83a.51.51 0 0 1 -.56.56h-.18a.5.5 0 0 1 -.55-.56z"/><path d="m242.77 77.57v-9.83h-2.84a.5.5 0 0 1 -.55-.56v-.09a.5.5 0 0 1 .55-.55h7a.5.5 0 0 1 .56.55v.09a.51.51 0 0 1 -.56.56h-2.82v9.83a.51.51 0 0 1 -.56.56h-.18a.51.51 0 0 1 -.6-.56z"/><path d="m249 77.57v-10.48a.5.5 0 0 1 .55-.55h.18a.5.5 0 0 1 .56.55v4.56h6.37v-4.56a.5.5 0 0 1 .55-.55h.18a.5.5 0 0 1 .56.55v10.48a.51.51 0 0 1 -.56.56h-.18a.5.5 0 0 1 -.55-.56v-4.76h-6.36v4.76a.51.51 0 0 1 -.56.56h-.18a.5.5 0 0 1 -.56-.56z"/><path d="m260.45 77.57v-10.48a.5.5 0 0 1 .55-.55h6.35a.5.5 0 0 1 .56.55v.09a.51.51 0 0 1 -.56.56h-5.61v3.91h5.32a.51.51 0 0 1 .56.56v.05a.5.5 0 0 1 -.56.55h-5.32v4.12h5.61a.51.51 0 0 1 .56.56v.08a.51.51 0 0 1 -.56.56h-6.35a.5.5 0 0 1 -.55-.56z"/><path d="m274.14 77.57v-10.48a.5.5 0 0 1 .56-.55h2.21c4.72 0 6.66 1.8 6.66 5.79s-1.94 5.8-6.66 5.8h-2.21a.51.51 0 0 1 -.56-.56zm8.13-5.25c0-3.23-1.56-4.59-5.33-4.59h-1.5v9.2h1.56c3.71 0 5.27-1.37 5.27-4.61z"/><path d="m285.62 77.57v-10.48a.5.5 0 0 1 .56-.55h6.35a.5.5 0 0 1 .55.55v.09a.5.5 0 0 1 -.55.56h-5.61v3.91h5.32a.51.51 0 0 1 .56.56v.05a.5.5 0 0 1 -.56.55h-5.32v4.12h5.61a.5.5 0 0 1 .55.56v.08a.5.5 0 0 1 -.55.56h-6.35a.51.51 0 0 1 -.56-.56z"/><path d="m304.66 78.13h-.24a.66.66 0 0 1 -.64-.43l-.91-2.14h-6.4l-.9 2.14a.66.66 0 0 1 -.65.43h-.22c-.41 0-.59-.27-.43-.65l4.58-10.48a.66.66 0 0 1 .65-.43h.34a.64.64 0 0 1 .64.43l4.6 10.51c.15.35-.01.62-.42.62zm-5-10.13-2.73 6.46h5.47z"/><path d="m306.48 77.57v-10.48a.5.5 0 0 1 .56-.55h.18a.5.5 0 0 1 .55.55v9.84h4.84a.51.51 0 0 1 .56.56v.08a.51.51 0 0 1 -.56.56h-5.61a.51.51 0 0 1 -.52-.56z"/><path d="m319.06 77.57v-10.48a.5.5 0 0 1 .55-.55h.19a.5.5 0 0 1 .55.55v10.48a.5.5 0 0 1 -.55.56h-.19a.5.5 0 0 1 -.55-.56z"/><path d="m322.16 76c-.19-.31-.09-.52.29-.68h.13c.3-.12.49 0 .75.31a4.22 4.22 0 0 0 3.5 1.6c1.83 0 3-.82 3-2.13 0-3.21-7.4-1.05-7.4-5.49 0-1.85 1.69-3.15 4-3.15a4.88 4.88 0 0 1 4.29 2.08.41.41 0 0 1 -.26.67l-.17.06c-.29.08-.49 0-.74-.31a3.63 3.63 0 0 0 -3.07-1.33c-1.64 0-2.77.77-2.77 2 0 3.29 7.41 1 7.41 5.5 0 2-1.76 3.27-4.29 3.27a5.28 5.28 0 0 1 -4.67-2.4z"/></g></svg>